<?xml version="1.0" encoding="UTF-8" standalone="no"?>
<!-- Created with Inkscape (http://www.inkscape.org/) -->

<svg
   xmlns:dc="http://purl.org/dc/elements/1.1/"
   xmlns:cc="http://creativecommons.org/ns#"
   xmlns:rdf="http://www.w3.org/1999/02/22-rdf-syntax-ns#"
   xmlns:svg="http://www.w3.org/2000/svg"
   xmlns="http://www.w3.org/2000/svg"
   xmlns:sodipodi="http://sodipodi.sourceforge.net/DTD/sodipodi-0.dtd"
   xmlns:inkscape="http://www.inkscape.org/namespaces/inkscape"
   width="972.35364"
   height="406.42929"
   viewBox="0 0 972.35362 406.42931"
   id="svg6282"
   version="1.1"
   inkscape:version="0.91 r13725"
   sodipodi:docname="w8mngr-long.svg">
  <defs
     id="defs6284">
    <inkscape:path-effect
       effect="skeletal"
       id="path-effect6244"
       is_visible="true"
       pattern="m 344.03294,55.109037 c 0,-2.76 2.24,-5 5,-5 2.76,0 5,2.24 5,5 0,2.76 -2.24,5 -5,5 -2.76,0 -5,-2.24 -5,-5 z"
       copytype="single_stretched"
       prop_scale="1"
       scale_y_rel="false"
       spacing="0"
       normal_offset="0"
       tang_offset="0"
       prop_units="false"
       vertical_pattern="false"
       fuse_tolerance="0" />
    <inkscape:path-effect
       effect="skeletal"
       id="path-effect6220-0"
       is_visible="true"
       pattern="m 648.34393,66.623085 c 0,-2.76 2.24,-5 5,-5 2.76,0 5,2.24 5,5 0,2.76 -2.24,5 -5,5 -2.76,0 -5,-2.24 -5,-5 z"
       copytype="single_stretched"
       prop_scale="1"
       scale_y_rel="false"
       spacing="0"
       normal_offset="0"
       tang_offset="0"
       prop_units="false"
       vertical_pattern="false"
       fuse_tolerance="0" />
    <inkscape:path-effect
       effect="skeletal"
       id="path-effect6220"
       is_visible="true"
       pattern="m 377.15836,55.109037 c 0,-2.76 2.24,-5 5,-5 2.76,0 5,2.24 5,5 0,2.76 -2.24,5 -5,5 -2.76,0 -5,-2.24 -5,-5 z"
       copytype="single_stretched"
       prop_scale="1"
       scale_y_rel="false"
       spacing="0"
       normal_offset="0"
       tang_offset="0"
       prop_units="false"
       vertical_pattern="false"
       fuse_tolerance="0" />
    <inkscape:path-effect
       effect="skeletal"
       id="path-effect6198-4"
       is_visible="true"
       pattern="m 387.21069,293.76458 c 0,-2.76 2.24,-5 5,-5 2.76,0 5,2.24 5,5 0,2.76 -2.24,5 -5,5 -2.76,0 -5,-2.24 -5,-5 z"
       copytype="single_stretched"
       prop_scale="1.5"
       scale_y_rel="false"
       spacing="0"
       normal_offset="0"
       tang_offset="0"
       prop_units="false"
       vertical_pattern="false"
       fuse_tolerance="0" />
    <inkscape:path-effect
       effect="skeletal"
       id="path-effect6198"
       is_visible="true"
       pattern="m 389.48363,294.05092 c 0,-2.76 2.24,-5 5,-5 2.76,0 5,2.24 5,5 0,2.76 -2.24,5 -5,5 -2.76,0 -5,-2.24 -5,-5 z"
       copytype="single_stretched"
       prop_scale="1.5"
       scale_y_rel="false"
       spacing="0"
       normal_offset="0"
       tang_offset="0"
       prop_units="false"
       vertical_pattern="false"
       fuse_tolerance="0" />
    <clipPath
       clipPathUnits="userSpaceOnUse"
       id="clipPath28">
      <path
         d="m 0,369.455 745,0 L 745,0 0,0 0,369.455 Z"
         id="path30"
         inkscape:connector-curvature="0" />
    </clipPath>
    <clipPath
       clipPathUnits="userSpaceOnUse"
       id="clipPath16">
      <path
         d="m 0,369.455 745,0 L 745,0 0,0 0,369.455 Z"
         id="path18"
         inkscape:connector-curvature="0" />
    </clipPath>
    <clipPath
       clipPathUnits="userSpaceOnUse"
       id="clipPath40">
      <path
         d="m 0,369.455 745,0 L 745,0 0,0 0,369.455 Z"
         id="path42"
         inkscape:connector-curvature="0" />
    </clipPath>
  </defs>
  <sodipodi:namedview
     id="base"
     pagecolor="#ffffff"
     bordercolor="#666666"
     borderopacity="1.0"
     inkscape:pageopacity="0.0"
     inkscape:pageshadow="2"
     inkscape:zoom="0.35"
     inkscape:cx="-173.68619"
     inkscape:cy="8.0823554"
     inkscape:document-units="px"
     inkscape:current-layer="layer1"
     showgrid="false"
     fit-margin-top="0"
     fit-margin-left="0"
     fit-margin-right="0"
     fit-margin-bottom="0"
     inkscape:window-width="1920"
     inkscape:window-height="1017"
     inkscape:window-x="-8"
     inkscape:window-y="-8"
     inkscape:window-maximized="1"
     units="px" />
  <metadata
     id="metadata6287">
    <rdf:RDF>
      <cc:Work
         rdf:about="">
        <dc:format>image/svg+xml</dc:format>
        <dc:type
           rdf:resource="http://purl.org/dc/dcmitype/StillImage" />
        <dc:title></dc:title>
      </cc:Work>
    </rdf:RDF>
  </metadata>
  <g
     inkscape:label="Layer 1"
     inkscape:groupmode="layer"
     id="layer1"
     transform="translate(-244.40048,-134.01526)">
    <g
       style="display:inline"
       id="g36"
       transform="matrix(1.25,0,0,-1.25,482.33367,774.70888)">
      <g
         id="g38"
         clip-path="url(#clipPath40)"
         transform="translate(-2.2713415,45.426829)">
        <g
           transform="scale(1,-1)"
           style="font-variant:normal;font-weight:600;font-stretch:normal;font-size:208px;line-height:100%;font-family:'Futura PT Heavy';-inkscape-font-specification:FuturaPT-Heavy;writing-mode:lr-tb;fill:#007e80;fill-opacity:1;fill-rule:nonzero;stroke:none"
           id="text44">
          <path
             d="m 170.21717,-292.39071 -11.9072,93.5008 -35.7216,0 -7.6128,-39.4304 -1.3664,0 -7.4176,39.4304 -34.940797,0 -11.9072,-93.5008 30.060799,0 4.0992,47.2384 1.5616,0 6.636798,-47.2384 27.1328,0 6.4416,47.2384 1.7568,0 4.2944,-47.2384 28.8896,0 z"
             style="font-style:normal;font-variant:normal;font-weight:normal;font-stretch:normal;font-size:195.19999695px;line-height:100%;font-family:'Passion One';-inkscape-font-specification:'Passion One, Normal';text-align:start;letter-spacing:-0.024px;writing-mode:lr-tb;text-anchor:start"
             id="path6900" />
          <path
             d="m 297.45178,-285.55871 q 10.736,-9.1744 23.6192,-9.1744 12.8832,0 17.9584,6.0512 5.2704,5.856 5.2704,17.7632 l 0,72.0288 -33.184,0 0,-60.9024 q 0,-4.88 -4.2944,-4.88 -5.4656,0 -9.1744,2.7328 l 0,63.0496 -33.184,0 0,-60.9024 q 0,-4.88 -4.2944,-4.88 -5.4656,0 -9.1744,2.7328 l 0,63.0496 -32.7936,0 0,-93.5008 29.8656,0 1.952,6.832 0.7808,0 q 10.736,-9.1744 25.376,-9.1744 14.8352,0 19.3248,10.9312 l 1.952,-1.7568 z"
             style="font-style:normal;font-variant:normal;font-weight:normal;font-stretch:normal;font-size:195.19999695px;line-height:100%;font-family:'Passion One';-inkscape-font-specification:'Passion One, Normal';text-align:start;letter-spacing:-0.024px;writing-mode:lr-tb;text-anchor:start"
             id="path6902" />
          <path
             d="m 388.4062,-285.55871 q 10.736,-9.1744 23.6192,-9.1744 12.8832,0 17.9584,6.0512 5.2704,5.856 5.2704,17.7632 l 0,72.0288 -33.184,0 0,-60.9024 q 0,-4.88 -4.2944,-4.88 -5.4656,0 -9.1744,2.7328 l 0,63.0496 -32.7936,0 0,-93.5008 29.8656,0 1.952,6.832 0.7808,0 z"
             style="font-style:normal;font-variant:normal;font-weight:normal;font-stretch:normal;font-size:195.19999695px;line-height:100%;font-family:'Passion One';-inkscape-font-specification:'Passion One, Normal';text-align:start;letter-spacing:-0.024px;writing-mode:lr-tb;text-anchor:start"
             id="path6904" />
          <path
             d="m 475.20656,-190.30111 20.1056,0 q 3.5136,0 3.5136,-3.1232 l 0,-0.7808 q 0,-2.928 -3.5136,-2.928 l -20.1056,0 q -3.1232,0 -3.1232,3.1232 l 0,0.7808 q 0,2.928 3.1232,2.928 z m 7.808,-104.432 46.0672,0 0,21.8624 -14.0544,0 0,0.976 q 6.2464,5.4656 6.2464,14.2496 0,31.232 -35.3312,31.232 l -9.3696,0 q -3.5136,0 -3.5136,3.3184 0,3.1232 3.3184,3.1232 l 26.5472,0 q 22.448,0 22.448,19.52 0,16.0064 -10.736,23.0336 -10.736,7.2224 -29.6704,7.2224 -18.9344,0 -28.6944,-4.0992 -9.5648,-3.904 -9.5648,-14.8352 0,-6.0512 7.6128,-10.1504 l 0,-0.7808 q -9.5648,-5.2704 -9.5648,-15.2256 0,-11.712 15.0304,-17.7632 -7.0272,-5.0752 -10.5408,-11.712 -3.3184,-6.832 -3.3184,-17.9584 0,-15.4208 9.9552,-23.6192 10.1504,-8.3936 27.1328,-8.3936 z m 8.5888,37.4784 q 0,-6.2464 -1.5616,-8.9792 -1.3664,-2.928 -5.2704,-2.928 -3.904,0 -5.4656,2.928 -1.3664,2.7328 -1.3664,8.5888 0,11.9072 7.0272,11.9072 6.6368,0 6.6368,-11.5168 z"
             style="font-style:normal;font-variant:normal;font-weight:normal;font-stretch:normal;font-size:195.19999695px;line-height:100%;font-family:'Passion One';-inkscape-font-specification:'Passion One, Normal';text-align:start;letter-spacing:-0.024px;writing-mode:lr-tb;text-anchor:start"
             id="path6906" />
          <path
             d="m 566.96927,-251.39871 0,52.5088 -32.4032,0 0,-93.5008 28.4992,0 1.952,5.6608 0.7808,0 q 4.4896,-5.0752 8.9792,-6.4416 4.6848,-1.5616 15.0304,-1.5616 l -1.3664,31.232 -8.9792,0 q -7.6128,0 -10.1504,2.3424 -2.3424,2.3424 -2.3424,9.76 z"
             style="font-style:normal;font-variant:normal;font-weight:normal;font-stretch:normal;font-size:195.19999695px;line-height:100%;font-family:'Passion One';-inkscape-font-specification:'Passion One, Normal';text-align:start;letter-spacing:-0.024px;writing-mode:lr-tb;text-anchor:start"
             id="path6908" />
        </g>
      </g>
    </g>
    <path
       style="display:inline;fill:#00b9bd;fill-opacity:1;fill-rule:evenodd;stroke:none;stroke-width:20;stroke-linecap:butt;stroke-linejoin:miter;stroke-miterlimit:1;stroke-dasharray:none;stroke-opacity:1"
       d="m 688.49661,203.23915 c 0.99511,2.0641 -9.31239,5.99017 -22.60552,18.6179 -4.43436,4.22597 -9.42889,9.79905 -12.69692,16.44112 -2.36989,4.75678 -3.98974,10.33657 -4.25846,16.26651 -0.28166,5.46494 0.57981,11.24187 2.31025,17.27941 1.7964,6.22492 4.51971,12.41007 7.9137,18.85712 0,0 10e-6,10e-6 10e-6,10e-6 3.55629,6.73094 7.7141,13.34727 12.3931,20.22886 9.9825,14.6759 20.37273,27.69469 32.49458,43.51476 2.1413,2.78981 4.30459,5.62084 6.46252,8.47659 9.59263,12.69464 18.41411,25.01057 26.26851,37.97795 4.8052,7.93416 9.06818,15.89419 12.63956,24.06635 3.55254,8.11341 6.29235,16.27871 8.00776,24.54175 1.76099,8.46818 2.28735,16.81922 1.55511,24.81297 0,0 0,1e-5 0,1e-5 -0.8471,9.04207 -3.34886,17.28314 -6.74211,24.36726 -4.61796,9.59028 -10.77878,17.18679 -16.39637,22.81467 -15.54679,15.58179 -27.80362,19.43662 -28.18127,18.88902 -1.32373,-1.91941 9.30178,-8.27055 22.04523,-24.37035 4.54474,-5.74654 9.47931,-13.10014 12.78332,-21.60162 2.44708,-6.25548 4.1087,-13.36343 4.3973,-20.92614 0,0 0,-10e-6 0,-10e-6 0.27387,-6.71822 -0.54,-13.78005 -2.33921,-21.07783 -1.76534,-7.151 -4.47168,-14.31803 -7.91374,-21.66664 -3.47357,-7.40111 -7.61421,-14.70699 -12.30258,-22.17982 -7.68709,-12.25429 -16.29757,-24.02875 -25.79473,-36.60176 -2.12735,-2.81633 -4.2771,-5.64429 -6.39425,-8.43037 -11.86042,-15.58134 -22.52562,-29.41864 -32.42943,-44.76581 -4.7078,-7.29224 -8.93657,-14.53495 -12.55405,-22.00969 0,0 -10e-6,-10e-6 -10e-6,-10e-6 -3.47018,-7.14564 -6.23615,-14.34698 -8.0148,-21.74055 -1.74933,-7.21812 -2.33877,-14.43709 -1.5931,-21.39763 0.85471,-7.65497 3.42452,-14.52339 6.86993,-20.21014 4.79082,-7.82765 11.03081,-13.5538 16.46972,-17.55532 15.95114,-11.76444 27.37218,-13.10347 27.60595,-12.61857 z"
       id="path6196"
       inkscape:path-effect="#path-effect6198"
       inkscape:original-d="m 688.49661,203.23915 c -164.62947,79.3686 183.8367,223.58519 19.16445,337.15226"
       inkscape:connector-curvature="0"
       sodipodi:nodetypes="cc" />
    <path
       style="display:inline;fill:#00b9bd;fill-opacity:1;fill-rule:evenodd;stroke:none;stroke-width:20;stroke-linecap:butt;stroke-linejoin:miter;stroke-miterlimit:1;stroke-dasharray:none;stroke-opacity:1"
       d="m 706.00577,202.9528 c 0.29189,-0.60544 12.14415,1.00933 28.5168,13.42077 6.12651,4.64695 12.93499,11.1293 18.60465,19.74899 4.31386,6.58679 7.90695,14.39766 10.13266,23.22703 0,0 0,1e-5 0,1e-5 1.99578,7.95474 2.88609,16.46641 2.66344,25.35931 -0.21402,8.69709 -1.4029,17.52854 -3.40067,26.50986 -2.00071,9.01688 -4.72926,17.99966 -8.04275,27.0673 -4.30272,11.77052 -9.41787,23.39269 -15.189,35.15853 -3.15409,6.43037 -6.41313,12.71881 -9.67256,18.82047 -9.1106,17.07361 -20.2367,36.18299 -28.45619,50.70304 -4.57929,8.09157 -8.68661,15.47603 -12.57608,22.92036 0,0 0,1e-5 0,1e-5 -3.81891,7.3159 -7.07655,13.97063 -9.87691,20.6219 -2.6883,6.4144 -4.72145,12.10352 -6.02262,17.75763 -1.21371,5.4166 -1.73359,10.02707 -1.23466,14.32175 0.50345,4.553 2.12582,8.3221 4.18754,11.10506 1.44966,1.98614 3.17011,3.61655 4.65869,4.86615 4.07542,3.41975 6.86697,4.63482 6.54321,5.54409 -0.18485,0.51915 -3.4644,0.78079 -8.89895,-1.80996 -2.02592,-0.96638 -4.42696,-2.43113 -6.73155,-4.60384 -3.26659,-3.12391 -6.25084,-7.74395 -7.62853,-13.69034 -1.23524,-5.38795 -1.31779,-11.22752 -0.41709,-17.46029 0.90751,-6.51335 2.64286,-13.06711 5.04588,-20.02632 2.48997,-7.24442 5.51303,-14.48867 9.05982,-22.17923 10e-6,0 10e-6,-1e-5 10e-6,-1e-5 3.60277,-7.81857 7.52268,-15.62554 11.84619,-23.91327 23.12257,-44.33558 3.16269,-4.92825 27.31413,-51.12279 3.15294,-6.03723 6.32144,-12.21673 9.38914,-18.46487 5.62179,-11.4502 10.61863,-22.5498 14.8693,-33.69524 3.26962,-8.56963 6.00217,-16.89084 8.06664,-25.15791 2.0514,-8.23459 3.41065,-16.13845 3.89802,-23.83955 0.49364,-7.85371 0.11002,-15.24698 -1.23125,-22.12952 0,0 0,-10e-6 0,-10e-6 -1.47126,-7.60779 -4.07515,-14.48477 -7.33811,-20.41649 -4.25674,-7.77927 -9.7833,-14.16744 -14.82493,-19.06456 -13.62216,-13.23437 -24.23499,-17.5438 -23.25427,-19.57806 z"
       id="path6196-3"
       inkscape:path-effect="#path-effect6198-4"
       inkscape:original-d="M 706.00577,202.9528 C 870.63524,282.32141 593.14849,506.74474 686.84132,540.10506"
       inkscape:connector-curvature="0"
       sodipodi:nodetypes="cc" />
    <path
       style="display:inline;fill:#00b9bd;fill-opacity:1;fill-rule:evenodd;stroke:none;stroke-width:1px;stroke-linecap:butt;stroke-linejoin:miter;stroke-opacity:1"
       d="m 514.14865,172.80339 c 0.59597,-1.0727 6.25405,0.78523 15.182,4.74989 0,0 0,1e-5 0,1e-5 8.44127,3.9692 19.76849,10.21798 31.86676,18.61758 3.7609,2.60724 7.61957,5.43345 11.4662,8.4788 8.35792,6.61691 15.46206,13.32356 21.43719,20.18398 0,0 0,1e-5 0,1e-5 5.17301,5.93463 9.00644,11.52007 11.77429,16.82377 5.43425,10.35995 5.26858,17.46721 4.09577,17.74086 -1.20561,0.28131 -3.65817,-5.86039 -9.84162,-14.15005 -3.34731,-4.4666 -7.29175,-8.98002 -12.60741,-14.26907 0,0 0,0 0,0 -6.14231,-6.10723 -12.96235,-12.07156 -21.06788,-18.48197 -3.69341,-2.921 -7.39416,-5.73022 -10.96116,-8.39021 -11.37131,-8.4688 -21.92536,-15.66924 -29.35101,-20.95547 0,0 -1e-5,0 -1e-5,0 -8.02581,-5.45415 -12.58893,-9.27572 -11.99312,-10.34813 z"
       id="path6218"
       inkscape:path-effect="#path-effect6220"
       inkscape:original-d="m 514.14864,172.80339 c 0,0 85.8851,44.00724 95.82222,86.5949"
       inkscape:connector-curvature="0" />
    <path
       style="display:inline;fill:#00b9bd;fill-opacity:1;fill-rule:evenodd;stroke:none;stroke-width:1px;stroke-linecap:butt;stroke-linejoin:miter;stroke-opacity:1"
       d="m 881.77786,184.31744 c 0.59581,1.07241 -3.96731,4.89398 -11.99312,10.34813 0,0 -1e-5,0 -1e-5,0 -7.42565,5.28623 -17.9797,12.48667 -29.35101,20.95547 -3.567,2.65999 -7.26775,5.46921 -10.96116,8.39021 -8.10553,6.41041 -14.92557,12.37474 -21.06788,18.48197 0,0 0,0 0,0 -5.31566,5.28905 -9.2601,9.80247 -12.60741,14.26907 -6.18345,8.28966 -8.63601,14.43136 -9.84162,14.15005 -1.17281,-0.27365 -1.33848,-7.38091 4.09577,-17.74086 2.76785,-5.3037 6.60128,-10.88914 11.77429,-16.82378 0,1e-5 0,0 0,0 5.97513,-6.86042 13.07927,-13.56707 21.43719,-20.18398 3.84663,-3.04535 7.7053,-5.87156 11.4662,-8.4788 12.09827,-8.3996 23.42549,-14.64838 31.86676,-18.61758 0,0 0,-1e-5 0,-1e-5 8.92795,-3.96466 14.58603,-5.82259 15.182,-4.74989 z"
       id="path6218-1"
       inkscape:path-effect="#path-effect6220-0"
       inkscape:original-d="m 881.77787,184.31744 c 0,0 -85.8851,44.00724 -95.82222,86.5949"
       inkscape:connector-curvature="0" />
    <path
       style="display:inline;fill:#00b9bd;fill-opacity:1;fill-rule:evenodd;stroke:none;stroke-width:1px;stroke-linecap:butt;stroke-linejoin:miter;stroke-opacity:1"
       d="m 698.20272,179.95768 c -0.0266,-0.0175 -0.0507,-0.038 -0.0729,-0.0619 -0.0213,-0.023 -0.0405,-0.0489 -0.0578,-0.0778 -0.0343,-0.0573 -0.0608,-0.12636 -0.0797,-0.20672 l 0,0 0,0 c -0.0374,-0.1581 -0.0459,-0.36114 -0.0268,-0.60668 l 0,0 c 0.0369,-0.47621 0.1762,-1.11847 0.40056,-1.91242 l 0,0 c 0.42641,-1.50931 1.12669,-3.47229 1.9941,-6.00708 l 0,0 0,0 0,0 c 1.24553,-3.68208 3.45888,-9.89208 3.75101,-15.57384 l 0,0 c 0.0875,-2.1775 0.0123,-4.42256 -0.71609,-6.15083 l 0,0 c -0.54461,-1.42256 -1.62947,-2.77734 -2.97595,-3.55258 l 0,0 c -1.85965,-1.26037 -4.58332,-1.64081 -7.81053,-1.90408 -4.11707,-0.22838 -8.42672,0.28066 -13.1133,1.1169 -0.8593,0.15333 -1.72055,0.31562 -2.57958,0.48241 -5.78804,1.18162 -10.89416,2.4343 -15.5401,4.41058 -3.12063,1.40336 -5.67118,2.68407 -7.30266,4.52311 l 0,0 c -1.07396,1.17239 -1.82879,2.51569 -1.91646,3.7397 l 0,0 c -0.23151,1.35689 0.2478,3.04793 0.86897,4.64541 l 0,0 c 1.71752,4.24012 5.53323,8.34915 7.70438,10.77863 l 0,0 c 1.5564,1.72094 2.76894,3.00941 3.63719,4.07374 l 0,0 c 0.45582,0.55868 0.79071,1.02746 0.98553,1.40221 l 0,0 c 0.10079,0.19387 0.16439,0.36415 0.18886,0.50931 l 0,0 c 0.012,0.0735 0.0142,0.14116 0.006,0.20237 l 0,0 0,0 c -0.0338,0.0793 -0.0484,0.12165 -0.0544,0.14418 -0.006,0.0222 -0.004,0.0251 -0.003,0.0254 0,0 0,0 0,0 0,0 0,0 0,0 0,0 0,0 0,0 10e-6,1e-5 10e-6,1e-5 10e-6,1e-5 0,0 0,0 -2e-5,0 0,0 0,0 0,0 0,0 0,0 0,0 0,0 0,0 0,0 -3.1e-4,-1.3e-4 -0.004,-9.3e-4 -0.0212,0.0143 -0.0175,0.0155 -0.0488,0.0474 -0.1047,0.11297 l 0,0 0,0 c -0.052,0.034 -0.11472,0.0607 -0.18834,0.0803 l 0,0 c -0.14435,0.0391 -0.32878,0.0504 -0.55247,0.0339 l 0,0 c -0.43303,-0.0319 -1.00982,-0.16899 -1.71819,-0.41672 l 0,0 c -1.29629,-0.45322 -3.0756,-1.29542 -5.14894,-2.58017 l 0,0 c -3.04086,-1.85199 -7.90326,-5.32032 -11.33766,-10.9411 l 0,0 c -1.33494,-2.15844 -2.41331,-4.9735 -2.50412,-8.33335 l 0,0 c 0.0506,-3.35956 1.22927,-6.63317 3.39762,-9.26028 2.83418,-3.39403 6.41505,-5.77068 10.13997,-7.45458 5.50848,-2.60281 11.34774,-4.25996 17.47251,-5.5013 0.91716,-0.19447 1.84947,-0.37972 2.79502,-0.55148 5.1487,-0.93524 10.32036,-1.40047 15.5437,-1.00172 4.14321,0.23176 8.46662,1.37903 12.31602,3.93969 l 0,0 c 3.11555,2.21107 5.18291,5.31934 6.13225,8.64506 l 0,0 c 0.94369,3.58947 0.80136,6.95305 0.26041,9.75825 l 0,0 c -1.36711,7.369 -4.78909,13.30773 -7.14437,16.80903 0,0 0,1e-5 0,1e-5 l 0,0 c -1.55033,2.32861 -2.98463,4.07004 -4.10443,5.18186 l 0,0 c -0.60561,0.60135 -1.12664,1.02711 -1.5485,1.27538 l 0,0 c -0.21712,0.12776 -0.40691,0.20836 -0.56844,0.24103 l 0,0 0,0 c -0.0817,0.0164 -0.15587,0.0206 -0.22255,0.0125 -0.0335,-0.004 -0.0651,-0.0113 -0.0948,-0.0216 -0.0309,-0.0108 -0.0593,-0.0247 -0.0859,-0.0421 z"
       id="path6242"
       inkscape:path-effect="#path-effect6244"
       inkscape:original-d="m 698.20271,179.95769 c 0,0 33.66108,-50.72867 -22.28269,-39.35028 -55.94377,11.37839 -10.43019,39.35028 -10.43019,39.35028"
       inkscape:connector-curvature="0" />
  </g>
  <g
     inkscape:groupmode="layer"
     id="layer2"
     inkscape:label="Layer 2"
     transform="translate(-244.40048,-134.01526)">
    <g
       style="display:inline"
       id="g12"
       transform="matrix(1.25,0,0,-1.25,-99.715896,536.03813)">
      <g
         id="g14"
         clip-path="url(#clipPath16)">
        <g
           id="g20"
           transform="translate(421.4371,220.7999)">
          <path
             d="M 0,0 -107.125,-107.125 0,-214.251 107.126,-107.125 0,0 Z m -16.924,16.924 c -29.459,29.459 -77.666,29.459 -107.125,0 l 0,0 c -29.46,-29.46 -29.46,-77.666 0,-107.125 l 16.924,-16.924 L 0,0 -16.924,16.924 Z M 107.126,-107.125 0,0 16.924,16.924 c 29.459,29.459 77.666,29.459 107.125,0 l 0,0 c 29.46,-29.46 29.46,-77.666 0,-107.125 l -16.923,-16.924 z"
             style="fill:#00b9bd;fill-opacity:1;fill-rule:nonzero;stroke:none"
             id="path22"
             inkscape:connector-curvature="0" />
        </g>
      </g>
    </g>
    <g
       style="display:inline"
       id="g24"
       transform="matrix(1.25,0,0,-1.25,-99.715896,536.03813)">
      <g
         id="g26"
         clip-path="url(#clipPath28)">
        <g
           id="g32"
           transform="translate(421.1548,191.767)">
          <path
             d="M 0,0 -84.609,-84.609 0,-169.218 84.609,-84.609 0,0 Z m -13.367,13.367 c -23.267,23.267 -61.341,23.267 -84.609,0 l 0,0 c -23.267,-23.268 -23.267,-61.342 0,-84.609 L -84.609,-84.609 0,0 -13.367,13.367 Z M 84.609,-84.609 0,0 13.367,13.367 c 23.267,23.267 61.341,23.267 84.609,0 l 0,0 c 23.267,-23.268 23.267,-61.342 0,-84.609 L 84.609,-84.609 Z"
             style="fill:#004853;fill-opacity:1;fill-rule:nonzero;stroke:none"
             id="path34"
             inkscape:connector-curvature="0" />
        </g>
      </g>
    </g>
  </g>
</svg>
