<?xml version="1.0" encoding="utf-8"?>
<!-- Generator: Adobe Illustrator 19.2.0, SVG Export Plug-In . SVG Version: 6.00 Build 0)  -->
<svg version="1.1" xmlns="http://www.w3.org/2000/svg" xmlns:xlink="http://www.w3.org/1999/xlink" x="0px" y="0px"
	 viewBox="0 0 745 369.5" style="enable-background:new 0 0 745 369.5;" xml:space="preserve">
<style type="text/css">
	.st0{fill:#00B9BD;}
	.st1{fill:#004853;}
	.st2{fill:none;}
	.st3{fill:#007E80;}
	.st4{display:none;}
	.st5{display:inline;fill:#00B9BD;}
</style>
<g id="Layer_3">
	<path class="st0" d="M528.6,255.8L421.4,148.7l16.9-16.9c29.5-29.5,77.7-29.5,107.1,0l0,0c29.5,29.5,29.5,77.7,0,107.1L528.6,255.8
		z M404.5,131.7c-29.5-29.5-77.7-29.5-107.1,0l0,0c-29.5,29.5-29.5,77.7,0,107.1l16.9,16.9l107.1-107.1L404.5,131.7z M421.4,148.7
		L314.3,255.8l107.1,107.1l107.1-107.1L421.4,148.7z"/>
</g>
<g id="Layer_3_copy">
	<path class="st1" d="M505.8,262.3l-84.6-84.6l13.4-13.4c23.3-23.3,61.3-23.3,84.6,0l0,0c23.3,23.3,23.3,61.3,0,84.6L505.8,262.3z
		 M407.8,164.3c-23.3-23.3-61.3-23.3-84.6,0l0,0c-23.3,23.3-23.3,61.3,0,84.6l13.4,13.4l84.6-84.6L407.8,164.3z M421.2,177.7
		l-84.6,84.6l84.6,84.6l84.6-84.6L421.2,177.7z"/>
</g>
<g id="Layer_1">
	<g>
		<rect x="10.7" y="-46.9" class="st2" width="800" height="302.5"/>
		<path class="st3" d="M76,104.7H57.3L11.1,11.9h32.9l23.9,49.3l23.5-50.5h15.8l23.5,50.5l23.9-49.3h32.9l-46.2,92.8h-18.7
			L99.3,51.9L76,104.7z"/>
		<path class="st3" d="M296.5,11.9h30v10.8c7.7-11.6,18.9-13.1,26-13.1c4,0,11.2,0.4,17.5,4.2c4.8,2.7,8.7,7.3,11.2,12.9
			c2.3-3.7,5.8-8.1,11.9-11.9c6.4-4,12.5-5.2,19.8-5.2c11.2,0,20.4,3.3,26,8.7c8.9,8.5,9.6,21,9.6,27.7v58.7h-30v-47
			c0-4.8,0-13.1-4-18.1c-2.5-3.1-6.4-5-10.8-5c-5,0-9.2,2.3-11.6,5.6c-4,5-4.6,12.3-4.6,18.3v46.2h-30V56.4c0-6.2-0.2-13.5-4.8-18.1
			c-3.1-3.1-6.9-3.7-10-3.7c-4,0-7.5,1-10.4,3.7c-5.6,5.4-5.8,15.8-5.8,18.9v47.4h-30V11.9z"/>
		<path class="st3" d="M456.2,11.9h30v11c9.2-11.6,20-13.5,28.7-13.5c8.1,0,18.7,1.5,26.6,9.4c8.7,8.7,9.4,19.8,9.4,27.2v58.7h-30
			V57.1c0-6-0.2-13.7-5-18.5c-2.3-2.3-6-4.2-11.4-4.2c-6.2,0-10.2,2.5-12.5,5c-5,5-5.8,11.6-5.8,17.7v47.6h-30V11.9z"/>
		<path class="st3" d="M631.3,11.9h30v87.1c0,13.1-0.6,27.9-11.4,39.5c-11.4,12.3-28.9,13.7-39.1,13.7c-12.3,0-27-1.9-38.7-11.9
			c-5.8-5-11.9-12.9-13.9-24.5h32.7c1.2,4.8,4.2,7.5,6.7,9.2c3.5,2.3,8.5,3.1,12.9,3.1c8.5,0,12.9-3.1,15-5c5.8-5.6,6-15.4,6-19.3
			V93.3c-3.5,5.8-10.6,13.9-27.7,13.9c-14.4,0-25.4-4.6-33.9-13.1c-7.5-7.7-13.5-18.9-13.5-34.9c0-15.8,5.8-28.9,13.7-37
			c5.6-5.8,16.4-13.3,33.7-13.3c16.8,0,24.3,8.9,27.7,13.9V11.9z M594.1,40.8c-4.6,4.4-7.1,11.6-7.1,17.3c0,6,2.3,12.3,6.4,16.6
			c4.2,4.4,9.8,6.7,16.8,6.7c7.9,0,13.1-3.1,16.2-6c4.6-4.4,7.3-10.8,7.3-17.7c0-7.3-3.1-13.3-7.1-17.1c-4.4-4-10.8-5.8-16.2-5.8
			C603.9,34.8,597.8,37.3,594.1,40.8z"/>
		<path class="st3" d="M669,11.9h30v14.6c2.7-5.2,6.9-10,11.6-12.9c5-3.1,10.2-4,16-4c3.7,0,6.4,0.4,9.8,1.5l-1.7,28.1
			c-4-2.1-8.3-3.3-13.5-3.3c-6.4,0-11.2,2.3-15,6.2c-6.7,7.1-7.3,17.1-7.3,25v37.6h-30V11.9z"/>
	</g>
</g>
<g id="Layer_2">
	<circle class="st0" cx="237.2" cy="50" r="23.2"/>
	<circle class="st0" cx="235.2" cy="110.3" r="23.2"/>
	<g>
		<rect x="172.9" class="st2" width="239.7" height="174.2"/>
		<path class="st0" d="M197.2,143.1c-10.6-9.6-13.3-21-13.3-30.2c0-11.9,5.2-19.3,9.4-23.7c4.6-4.8,11.2-8.5,17.3-10.4
			c-3.5-1.5-8.3-4-12.7-8.5c-6.2-6.4-8.5-13.5-8.5-22c0-11.6,4.4-20,10.2-25.8c10.2-10.4,23.5-12.7,36-12.7
			c12.1,0,25.4,2.3,35.6,12.7c5.8,5.8,10.2,14.1,10.2,25.8c0,8.5-2.3,15.6-8.5,22c-4.4,4.6-9.2,7.1-12.7,8.5
			c6,1.9,12.7,5.6,17.3,10.4c4.2,4.4,9.4,11.9,9.4,23.7c0,9.2-2.7,20.6-13.3,30.2c-12.3,11-25.2,11.6-38.3,11.6
			C222.6,154.7,209.5,154.1,197.2,143.1z M221.8,96.7c-3.3,3.3-5.4,8.9-5.4,13.7c0,5,1.7,10.4,5.4,13.9c3.5,3.3,8.7,5,13.5,5
			c4.8,0,10-1.7,13.5-5c3.1-2.9,5.4-8.1,5.4-14.1c0-5.8-2.3-10.6-5.4-13.5c-3.3-3.3-8.5-5-13.9-5C229.4,91.7,224.7,93.8,221.8,96.7z
			 M223,38.1c-3.5,3.3-5.2,7.3-5.2,11.9c0,5.8,2.7,9.6,5.2,11.9c3.1,2.7,7.3,4.6,12.3,4.6c4.4,0,8.5-1.2,12.1-4.6
			c3.5-3.3,5.2-7.1,5.2-11.9c0-6.9-3.7-10.6-5.2-12.1c-2.9-2.5-7.1-4.4-12.1-4.4C230.9,33.5,226.7,34.7,223,38.1z"/>
	</g>
</g>
<g id="Layer_6">
	<path class="st0" d="M286.3,107.8l-34.8,45.8c0,0,19.7-1.7,25.1,17.8"/>
	<path class="st0" d="M275.5,167.4l34.8-45.8c0,0-19.7,1.7-25.1-17.8"/>
	<ellipse class="st0" cx="279.9" cy="168.7" rx="3.7" ry="6.1"/>
</g>
<g id="Layer_5" class="st4">
	<path class="st5" d="M275.8,176.4c1.8-18.8-27.3-22.3-27.3-22.3l38.3-40.2c0,0,0.7,22.4,19,10.6"/>
</g>
</svg>
