<?xml version="1.0" encoding="UTF-8" standalone="no"?>
<!-- Created with Inkscape (http://www.inkscape.org/) -->

<svg
   xmlns:dc="http://purl.org/dc/elements/1.1/"
   xmlns:cc="http://creativecommons.org/ns#"
   xmlns:rdf="http://www.w3.org/1999/02/22-rdf-syntax-ns#"
   xmlns:svg="http://www.w3.org/2000/svg"
   xmlns="http://www.w3.org/2000/svg"
   xmlns:sodipodi="http://sodipodi.sourceforge.net/DTD/sodipodi-0.dtd"
   xmlns:inkscape="http://www.inkscape.org/namespaces/inkscape"
   width="198.86816mm"
   height="188.39774mm"
   viewBox="0 0 704.65098 667.55103"
   id="svg4983"
   version="1.1"
   inkscape:version="0.91 r13725"
   sodipodi:docname="w8mngr-forweb.svg">
  <defs
     id="defs4985">
    <inkscape:path-effect
       effect="skeletal"
       id="path-effect6244"
       is_visible="true"
       pattern="m -138.13094,85.383882 c 0,-2.76 2.24,-5 5,-5 2.76,0 5,2.24 5,5 0,2.76 -2.24,5 -5,5 -2.76,0 -5,-2.24 -5,-5 z"
       copytype="single_stretched"
       prop_scale="1.5"
       scale_y_rel="false"
       spacing="0"
       normal_offset="0"
       tang_offset="0"
       prop_units="false"
       vertical_pattern="false"
       fuse_tolerance="0" />
    <inkscape:path-effect
       effect="skeletal"
       id="path-effect6220-0"
       is_visible="true"
       pattern="m 145.97701,72.654261 c 0,-2.76 2.24,-5 5,-5 2.76,0 5,2.24 5,5 0,2.76 -2.24,5 -5,5 -2.76,0 -5,-2.24 -5,-5 z"
       copytype="single_stretched"
       prop_scale="3"
       scale_y_rel="false"
       spacing="0"
       normal_offset="0"
       tang_offset="0"
       prop_units="false"
       vertical_pattern="false"
       fuse_tolerance="0" />
    <inkscape:path-effect
       effect="skeletal"
       id="path-effect6220"
       is_visible="true"
       pattern="m -110.0563,80.333119 c 0,-2.76 2.24,-5 5,-5 2.76,0 5,2.24 5,5 0,2.76 -2.24,5 -5,5 -2.76,0 -5,-2.24 -5,-5 z"
       copytype="single_stretched"
       prop_scale="3"
       scale_y_rel="false"
       spacing="0"
       normal_offset="0"
       tang_offset="0"
       prop_units="false"
       vertical_pattern="false"
       fuse_tolerance="0" />
    <inkscape:path-effect
       effect="skeletal"
       id="path-effect6198-4"
       is_visible="true"
       pattern="m -107.07497,310.90744 c 0,-2.76 2.24,-5 5,-5 2.759999,0 4.999999,2.24 4.999999,5 0,2.76 -2.24,5 -4.999999,5 -2.76,0 -5,-2.24 -5,-5 z"
       copytype="single_stretched"
       prop_scale="3"
       scale_y_rel="false"
       spacing="0"
       normal_offset="0"
       tang_offset="0"
       prop_units="false"
       vertical_pattern="false"
       fuse_tolerance="0" />
    <inkscape:path-effect
       effect="skeletal"
       id="path-effect6198"
       is_visible="true"
       pattern="m -104.80207,311.19378 c 0,-2.76 2.24,-5 4.999999,-5 2.76,0 5,2.24 5,5 0,2.76 -2.24,5 -5,5 -2.759999,0 -4.999999,-2.24 -4.999999,-5 z"
       copytype="single_stretched"
       prop_scale="3"
       scale_y_rel="false"
       spacing="0"
       normal_offset="0"
       tang_offset="0"
       prop_units="false"
       vertical_pattern="false"
       fuse_tolerance="0" />
    <clipPath
       clipPathUnits="userSpaceOnUse"
       id="clipPath28">
      <path
         d="m 0,369.455 745,0 L 745,0 0,0 0,369.455 Z"
         id="path30"
         inkscape:connector-curvature="0" />
    </clipPath>
    <clipPath
       clipPathUnits="userSpaceOnUse"
       id="clipPath16">
      <path
         d="m 0,369.455 745,0 L 745,0 0,0 0,369.455 Z"
         id="path18"
         inkscape:connector-curvature="0" />
    </clipPath>
    <clipPath
       clipPathUnits="userSpaceOnUse"
       id="clipPath40">
      <path
         d="m 0,369.455 745,0 L 745,0 0,0 0,369.455 Z"
         id="path42"
         inkscape:connector-curvature="0" />
    </clipPath>
  </defs>
  <sodipodi:namedview
     id="base"
     pagecolor="#ffffff"
     bordercolor="#666666"
     borderopacity="1.0"
     inkscape:pageopacity="0.0"
     inkscape:pageshadow="2"
     inkscape:zoom="0.98994949"
     inkscape:cx="14.388703"
     inkscape:cy="367.25189"
     inkscape:document-units="px"
     inkscape:current-layer="layer1"
     showgrid="false"
     inkscape:window-width="1920"
     inkscape:window-height="1017"
     inkscape:window-x="-8"
     inkscape:window-y="-8"
     inkscape:window-maximized="1"
     fit-margin-top="0"
     fit-margin-left="0"
     fit-margin-right="0"
     fit-margin-bottom="0" />
  <metadata
     id="metadata4988">
    <rdf:RDF>
      <cc:Work
         rdf:about="">
        <dc:format>image/svg+xml</dc:format>
        <dc:type
           rdf:resource="http://purl.org/dc/dcmitype/StillImage" />
        <dc:title></dc:title>
      </cc:Work>
    </rdf:RDF>
  </metadata>
  <g
     inkscape:label="Layer 1"
     inkscape:groupmode="layer"
     id="layer1"
     transform="translate(-19.817349,-151.15812)">
    <g
       style="display:inline"
       id="g36"
       transform="matrix(1.25,0,0,-1.25,-10.962224,793.87205)">
      <g
         id="g38"
         clip-path="url(#clipPath40)"
         transform="translate(-2.2713415,45.426829)">
        <g
           transform="scale(1,-1)"
           style="font-variant:normal;font-weight:600;font-stretch:normal;font-size:208px;line-height:100%;font-family:'Futura PT Heavy';-inkscape-font-specification:FuturaPT-Heavy;writing-mode:lr-tb;fill:#007e80;fill-opacity:1;fill-rule:nonzero;stroke:none"
           id="text44">
          <path
             d="m 170.21717,-292.39071 -11.9072,93.5008 -35.7216,0 -7.6128,-39.4304 -1.3664,0 -7.4176,39.4304 -34.940797,0 -11.9072,-93.5008 30.060799,0 4.0992,47.2384 1.5616,0 6.636798,-47.2384 27.1328,0 6.4416,47.2384 1.7568,0 4.2944,-47.2384 28.8896,0 z"
             style="font-style:normal;font-variant:normal;font-weight:normal;font-stretch:normal;font-size:195.19999695px;line-height:100%;font-family:'Passion One';-inkscape-font-specification:'Passion One, Normal';text-align:start;letter-spacing:-0.024px;writing-mode:lr-tb;text-anchor:start"
             id="path4162"
             inkscape:connector-curvature="0" />
          <path
             d="m 297.45178,-285.55871 q 10.736,-9.1744 23.6192,-9.1744 12.8832,0 17.9584,6.0512 5.2704,5.856 5.2704,17.7632 l 0,72.0288 -33.184,0 0,-60.9024 q 0,-4.88 -4.2944,-4.88 -5.4656,0 -9.1744,2.7328 l 0,63.0496 -33.184,0 0,-60.9024 q 0,-4.88 -4.2944,-4.88 -5.4656,0 -9.1744,2.7328 l 0,63.0496 -32.7936,0 0,-93.5008 29.8656,0 1.952,6.832 0.7808,0 q 10.736,-9.1744 25.376,-9.1744 14.8352,0 19.3248,10.9312 l 1.952,-1.7568 z"
             style="font-style:normal;font-variant:normal;font-weight:normal;font-stretch:normal;font-size:195.19999695px;line-height:100%;font-family:'Passion One';-inkscape-font-specification:'Passion One, Normal';text-align:start;letter-spacing:-0.024px;writing-mode:lr-tb;text-anchor:start"
             id="path4164"
             inkscape:connector-curvature="0" />
          <path
             d="m 388.4062,-285.55871 q 10.736,-9.1744 23.6192,-9.1744 12.8832,0 17.9584,6.0512 5.2704,5.856 5.2704,17.7632 l 0,72.0288 -33.184,0 0,-60.9024 q 0,-4.88 -4.2944,-4.88 -5.4656,0 -9.1744,2.7328 l 0,63.0496 -32.7936,0 0,-93.5008 29.8656,0 1.952,6.832 0.7808,0 z"
             style="font-style:normal;font-variant:normal;font-weight:normal;font-stretch:normal;font-size:195.19999695px;line-height:100%;font-family:'Passion One';-inkscape-font-specification:'Passion One, Normal';text-align:start;letter-spacing:-0.024px;writing-mode:lr-tb;text-anchor:start"
             id="path4166"
             inkscape:connector-curvature="0" />
          <path
             d="m 475.20656,-190.30111 20.1056,0 q 3.5136,0 3.5136,-3.1232 l 0,-0.7808 q 0,-2.928 -3.5136,-2.928 l -20.1056,0 q -3.1232,0 -3.1232,3.1232 l 0,0.7808 q 0,2.928 3.1232,2.928 z m 7.808,-104.432 46.0672,0 0,21.8624 -14.0544,0 0,0.976 q 6.2464,5.4656 6.2464,14.2496 0,31.232 -35.3312,31.232 l -9.3696,0 q -3.5136,0 -3.5136,3.3184 0,3.1232 3.3184,3.1232 l 26.5472,0 q 22.448,0 22.448,19.52 0,16.0064 -10.736,23.0336 -10.736,7.2224 -29.6704,7.2224 -18.9344,0 -28.6944,-4.0992 -9.5648,-3.904 -9.5648,-14.8352 0,-6.0512 7.6128,-10.1504 l 0,-0.7808 q -9.5648,-5.2704 -9.5648,-15.2256 0,-11.712 15.0304,-17.7632 -7.0272,-5.0752 -10.5408,-11.712 -3.3184,-6.832 -3.3184,-17.9584 0,-15.4208 9.9552,-23.6192 10.1504,-8.3936 27.1328,-8.3936 z m 8.5888,37.4784 q 0,-6.2464 -1.5616,-8.9792 -1.3664,-2.928 -5.2704,-2.928 -3.904,0 -5.4656,2.928 -1.3664,2.7328 -1.3664,8.5888 0,11.9072 7.0272,11.9072 6.6368,0 6.6368,-11.5168 z"
             style="font-style:normal;font-variant:normal;font-weight:normal;font-stretch:normal;font-size:195.19999695px;line-height:100%;font-family:'Passion One';-inkscape-font-specification:'Passion One, Normal';text-align:start;letter-spacing:-0.024px;writing-mode:lr-tb;text-anchor:start"
             id="path4168"
             inkscape:connector-curvature="0" />
          <path
             d="m 566.96927,-251.39871 0,52.5088 -32.4032,0 0,-93.5008 28.4992,0 1.952,5.6608 0.7808,0 q 4.4896,-5.0752 8.9792,-6.4416 4.6848,-1.5616 15.0304,-1.5616 l -1.3664,31.232 -8.9792,0 q -7.6128,0 -10.1504,2.3424 -2.3424,2.3424 -2.3424,9.76 z"
             style="font-style:normal;font-variant:normal;font-weight:normal;font-stretch:normal;font-size:195.19999695px;line-height:100%;font-family:'Passion One';-inkscape-font-specification:'Passion One, Normal';text-align:start;letter-spacing:-0.024px;writing-mode:lr-tb;text-anchor:start"
             id="path4170"
             inkscape:connector-curvature="0" />
        </g>
      </g>
    </g>
    <g
       style="display:inline"
       id="g12"
       transform="matrix(1.25,0,0,-1.25,-128.28727,822.89527)">
      <g
         id="g14"
         clip-path="url(#clipPath16)">
        <g
           id="g20"
           transform="translate(421.4371,220.7999)">
          <path
             d="M 0,0 -107.125,-107.125 0,-214.251 107.126,-107.125 0,0 Z m -16.924,16.924 c -29.459,29.459 -77.666,29.459 -107.125,0 l 0,0 c -29.46,-29.46 -29.46,-77.666 0,-107.125 l 16.924,-16.924 L 0,0 -16.924,16.924 Z M 107.126,-107.125 0,0 16.924,16.924 c 29.459,29.459 77.666,29.459 107.125,0 l 0,0 c 29.46,-29.46 29.46,-77.666 0,-107.125 l -16.923,-16.924 z"
             style="fill:#00b9bd;fill-opacity:1;fill-rule:nonzero;stroke:none"
             id="path22"
             inkscape:connector-curvature="0" />
        </g>
      </g>
    </g>
    <g
       style="display:inline"
       id="g24"
       transform="matrix(1.25,0,0,-1.25,-128.28727,822.89527)">
      <g
         id="g26"
         clip-path="url(#clipPath28)">
        <g
           id="g32"
           transform="translate(421.1548,191.767)">
          <path
             d="M 0,0 -84.609,-84.609 0,-169.218 84.609,-84.609 0,0 Z m -13.367,13.367 c -23.267,23.267 -61.341,23.267 -84.609,0 l 0,0 c -23.267,-23.268 -23.267,-61.342 0,-84.609 L -84.609,-84.609 0,0 -13.367,13.367 Z M 84.609,-84.609 0,0 13.367,13.367 c 23.267,23.267 61.341,23.267 84.609,0 l 0,0 c 23.267,-23.268 23.267,-61.342 0,-84.609 L 84.609,-84.609 Z"
             style="fill:#004853;fill-opacity:1;fill-rule:nonzero;stroke:none"
             id="path34"
             inkscape:connector-curvature="0" />
        </g>
      </g>
    </g>
    <path
       style="display:inline;fill:#00b9bd;fill-opacity:1;fill-rule:evenodd;stroke:none;stroke-width:20;stroke-linecap:butt;stroke-linejoin:miter;stroke-miterlimit:1;stroke-dasharray:none;stroke-opacity:1"
       d="m 194.21093,220.38202 c 1.61961,3.35945 -8.15123,8.53733 -20.10531,21.61756 -3.93536,4.3383 -8.30061,9.83463 -10.81053,15.88402 -1.83207,4.29114 -2.97706,9.22793 -2.95272,14.2947 -0.0492,4.71769 0.94736,9.7725 2.66881,15.22029 1.80594,5.64141 4.50662,11.31684 7.86315,17.4154 0,0 1e-5,2e-5 1e-5,2e-5 3.52648,6.35992 7.64725,12.66129 12.31263,19.33845 10.07492,14.40849 20.22151,26.88156 32.52714,42.88922 2.15175,2.78952 4.32505,5.62638 6.49665,8.49969 9.64262,12.75843 18.5651,25.33915 26.50541,38.66606 4.86384,8.1651 9.18754,16.45167 12.80805,25.00962 3.60796,8.49604 6.36413,17.16002 8.05476,25.9793 1.74201,9.05348 2.12435,18.04893 1.16306,26.68054 0,0 -10e-6,10e-6 -10e-6,10e-6 -1.12634,9.78151 -4.04817,18.58962 -7.91451,26.08782 -5.27577,10.13329 -12.04805,17.85404 -18.2029,23.42119 -16.94198,15.33218 -30.02742,17.92007 -31.24929,16.14836 -2.18241,-3.16449 7.64341,-10.74064 18.97722,-27.11101 4.01001,-5.80506 8.32805,-13.03884 10.97679,-20.9951 1.97403,-5.84081 3.21552,-12.3829 3.2249,-19.20559 0,0 0,-1e-5 0,-1e-5 0.0445,-6.08063 -0.91273,-12.49748 -2.73126,-19.21025 -1.79058,-6.59534 -4.47962,-13.26252 -7.86673,-20.22909 -3.425,-7.016 -7.50381,-13.99397 -12.13408,-21.23654 -7.6069,-11.90236 -16.10496,-23.39688 -25.55786,-35.91368 -2.083,-2.75815 -4.28407,-5.66151 -6.36009,-8.40725 -11.75469,-15.49408 -22.50741,-29.67644 -32.39686,-45.39134 -4.72268,-7.49811 -8.98596,-15.05291 -12.63452,-22.9001 0,0 0,-2e-5 0,-2e-5 -3.50866,-7.49539 -6.29521,-15.2039 -8.06536,-23.18225 -1.75903,-7.80865 -2.21193,-15.74817 -1.23451,-23.45675 1.14761,-8.51711 4.19259,-16.03059 8.17566,-22.18194 5.55363,-8.41904 12.41354,-14.22454 18.35614,-18.11243 17.27225,-11.34915 29.26583,-11.36194 30.10616,-9.6189 z"
       id="path6196"
       inkscape:path-effect="#path-effect6198"
       inkscape:original-d="M 194.21093,220.38202 C 29.581429,299.75061 378.0476,443.9672 213.37533,557.53427"
       inkscape:connector-curvature="0"
       sodipodi:nodetypes="cc" />
    <path
       style="display:inline;fill:#00b9bd;fill-opacity:1;fill-rule:evenodd;stroke:none;stroke-width:20;stroke-linecap:butt;stroke-linejoin:miter;stroke-miterlimit:1;stroke-dasharray:none;stroke-opacity:1"
       d="m 211.72003,220.09567 c 0.9237,-1.91597 13.40467,-1.66717 31.14806,10.34212 6.66929,4.52067 14.11806,11.05249 20.49452,20.09121 4.83922,6.91424 8.92711,15.19221 11.52994,24.63229 0,0 10e-6,10e-6 10e-6,10e-6 2.3229,8.49104 3.46683,17.56151 3.37954,26.97421 -0.0775,9.19534 -1.18089,18.49006 -3.15199,27.84501 -1.96897,9.39207 -4.69523,18.70506 -8.03079,28.02199 -4.32915,12.08387 -9.50265,23.96572 -15.34885,35.8902 -3.19688,6.52065 -6.502,12.86519 -9.81427,18.99825 -9.47975,17.59095 -20.3697,35.80307 -29.02721,50.49316 -4.72132,8.01517 -8.89407,15.14502 -12.94102,22.42391 0,0 0,1e-5 0,1e-5 -3.95953,7.13498 -7.32533,13.48212 -10.28545,19.84324 -2.83484,6.14799 -5.00909,11.39279 -6.51099,16.62328 -1.37407,5.01641 -2.18747,8.99655 -2.06053,12.75248 0.063,3.85701 1.01102,7.19924 2.46703,9.81242 1.02385,1.89214 2.4007,3.60683 3.62226,4.9973 3.38992,3.85094 5.94934,5.77099 5.36534,7.41116 -0.43515,1.22214 -3.9667,2.24458 -10.07682,0.0571 -2.29465,-0.8234 -5.03586,-2.20806 -7.76798,-4.47268 -3.86742,-3.29548 -7.53579,-8.33879 -9.34902,-14.98297 -1.60175,-5.93798 -1.9888,-12.38532 -1.24297,-19.02956 0.71263,-6.94614 2.29519,-13.92589 4.55752,-21.16067 2.33715,-7.54437 5.23817,-15.07663 8.65128,-22.9579 0,0 1e-5,-2e-5 1e-5,-2e-5 3.46496,-8.01416 7.28009,-16.01542 11.48124,-24.40972 9.22424,-18.44106 16.4211,-31.37993 26.7431,-51.33266 3.09887,-6.00334 6.22373,-12.13171 9.24741,-18.28706 5.54771,-11.29356 10.48422,-22.12952 14.70945,-32.96359 3.2479,-8.32105 5.98201,-16.31064 8.07858,-24.20323 2.07842,-7.86165 3.52244,-15.30085 4.1467,-22.50438 0.62932,-7.33447 0.49865,-14.16785 -0.51517,-20.51463 0,0 0,-10e-6 0,-10e-6 -1.0939,-6.99685 -3.20346,-13.40719 -5.94084,-19.01123 -3.55122,-7.35799 -8.43495,-13.70119 -12.93507,-18.72233 -12.24124,-13.65763 -22.24573,-19.29081 -20.62302,-22.65671 z"
       id="path6196-3"
       inkscape:path-effect="#path-effect6198-4"
       inkscape:original-d="m 211.72003,220.09567 c 164.6295,79.3686 -112.8572,303.79193 -19.1644,337.15225"
       inkscape:connector-curvature="0"
       sodipodi:nodetypes="cc" />
    <path
       style="display:inline;fill:#00b9bd;fill-opacity:1;fill-rule:evenodd;stroke:none;stroke-width:1px;stroke-linecap:butt;stroke-linejoin:miter;stroke-opacity:1"
       d="m 26.934005,198.02748 c 0.05465,-0.10593 0.114609,-0.20875 0.179899,-0.30848 0.06393,-0.0977 0.132922,-0.19235 0.207009,-0.28403 0.148035,-0.1832 0.315841,-0.35383 0.503635,-0.51304 1e-6,0 1e-6,0 1e-6,0 l 0,0 c 0.375357,-0.31748 0.827967,-0.58501 1.356104,-0.8065 l 0,0 c 1.050248,-0.44041 2.390496,-0.68777 3.99267,-0.74866 l 10e-7,0 c 3.161493,-0.12004 7.320049,0.50119 12.221335,1.863 l 0,0 c 9.402391,2.60943 21.578334,7.97319 34.292734,16.22906 3.950077,2.55079 7.976108,5.40143 11.971247,8.56741 8.64566,6.85132 15.96319,14.24446 21.80648,21.88598 0,0 1e-5,1e-5 1e-5,1e-5 5.0719,6.61484 8.71123,13.20305 10.94116,19.37847 4.57791,12.45523 2.00828,20.47805 -1.65009,21.33167 -3.41926,0.79782 -8.8196,-4.30141 -15.58746,-10.55924 -4.36762,-3.98435 -7.54138,-6.71605 -13.440533,-11.71436 -10e-7,0 -4e-6,0 -4e-6,0 C 87.109995,256.75096 81.1915,252.0165 73.029649,245.56883 69.43193,242.72672 66.004155,240.02539 62.573519,237.2672 51.730435,228.59132 42.200888,220.63258 35.648485,213.92322 l 0,0 c -3.395486,-3.47607 -5.982211,-6.61454 -7.517062,-9.27746 l -1e-6,-1e-5 c -0.778909,-1.35125 -1.288352,-2.59027 -1.500341,-3.69181 l 0,0 c -0.106662,-0.55418 -0.137008,-1.07743 -0.08904,-1.56311 l 0,0 c 0,0 0,0 0,0 0.0238,-0.24388 0.06792,-0.47951 0.132323,-0.70532 0.03229,-0.11322 0.06973,-0.22419 0.112405,-0.33277 0.04355,-0.11088 0.09259,-0.21933 0.147233,-0.32526 z"
       id="path6218"
       inkscape:path-effect="#path-effect6220"
       inkscape:original-d="m 26.933997,198.02748 c 0,0 85.885103,44.00724 95.822203,86.59489"
       inkscape:connector-curvature="0" />
    <path
       style="display:inline;fill:#00b9bd;fill-opacity:1;fill-rule:evenodd;stroke:none;stroke-width:1px;stroke-linecap:butt;stroke-linejoin:miter;stroke-opacity:1"
       d="m 379.41093,190.34863 c 0.0546,0.10593 0.10369,0.21438 0.14724,0.32526 0.0427,0.10858 0.0801,0.21955 0.1124,0.33277 0.0644,0.22581 0.10852,0.46144 0.13232,0.70532 0,0 0,0 0,0 l 0,0 c 0.048,0.48568 0.0176,1.00893 -0.089,1.56311 l 0,0 c -0.21199,1.10154 -0.72144,2.34056 -1.50035,3.69181 l 0,1e-5 c -1.53485,2.66292 -4.12157,5.80139 -7.51706,9.27746 l 0,0 c -6.5524,6.70936 -16.08195,14.6681 -26.92503,23.34398 -3.43064,2.75819 -6.85842,5.45952 -10.45614,8.30163 -8.16185,6.44767 -14.08034,11.18214 -20.69855,16.77994 0,0 -1e-5,0 -1e-5,0 -5.89915,4.99831 -9.07292,7.73002 -13.44054,11.71437 -6.76786,6.25782 -12.1682,11.35706 -15.58746,10.55923 -3.65837,-0.85362 -6.22799,-8.87644 -1.65008,-21.33167 2.22993,-6.17542 5.86927,-12.76363 10.94117,-19.37848 0,0 0,0 0,0 5.8433,-7.64152 13.16082,-15.03466 21.80648,-21.88598 3.99514,-3.16598 8.02117,-6.01662 11.97125,-8.56741 12.7144,-8.25587 24.89035,-13.61963 34.29274,-16.22906 l 0,0 c 4.90128,-1.3618 9.05984,-1.98304 12.22133,-1.863 l 0,0 c 1.60218,0.0609 2.94243,0.30825 3.99267,0.74866 l 0,0 c 0.52814,0.22149 0.98075,0.48902 1.35611,0.8065 l 0,0 c 0,0 0,0 0,0 0.18779,0.15921 0.3556,0.32984 0.50363,0.51304 0.0741,0.0917 0.14308,0.18634 0.20701,0.28403 0.0653,0.0997 0.12525,0.20255 0.1799,0.30848 z"
       id="path6218-1"
       inkscape:path-effect="#path-effect6220-0"
       inkscape:original-d="m 379.41094,190.34863 c 0,0 -85.8851,44.00724 -95.82222,86.59489"
       inkscape:connector-curvature="0" />
    <path
       style="display:inline;fill:#00b9bd;fill-opacity:1;fill-rule:evenodd;stroke:none;stroke-width:1px;stroke-linecap:butt;stroke-linejoin:miter;stroke-opacity:1"
       d="m 216.03887,210.23253 c -0.04,-0.0262 -0.0771,-0.0553 -0.11255,-0.0879 -0.034,-0.0313 -0.066,-0.0655 -0.096,-0.10266 -0.0595,-0.0736 -0.11129,-0.15894 -0.15526,-0.25525 l 0,0 0,0 c -0.0869,-0.1894 -0.14536,-0.42318 -0.17565,-0.6981 l 0,0 c -0.0588,-0.5335 -0.016,-1.22927 0.11357,-2.07169 l 0,0 c 0.24373,-1.5853 0.77918,-3.6504 1.46653,-6.21337 l 0,0 0,0 0,0 c 0.97935,-3.72081 2.86801,-10.01156 2.90265,-15.26504 l 0,0 c -0.0254,-2.02305 -0.15589,-3.98355 -0.83,-5.24898 l 0,0 c -0.44271,-0.94641 -1.28339,-1.86354 -2.18688,-2.27947 l 0,0 c -1.36217,-0.93538 -3.686,-1.12396 -6.68417,-1.39518 -3.84078,-0.18574 -7.93438,0.33417 -12.50571,1.14571 -0.83758,0.14869 -1.68135,0.30529 -2.5257,0.46513 -5.70544,1.16702 -10.62512,2.31792 -15.057,4.13791 -2.9704,1.33358 -5.2617,2.33957 -6.59334,3.79024 -0.80036,0.80827 -1.44923,1.66988 -1.54616,2.35955 -0.31051,0.8589 0.0159,2.26345 0.46017,3.72343 1.25552,3.86413 4.73955,8.09199 6.71237,10.67443 3.2091,3.63061 4.79679,6.26299 4.10423,7.31516 0,0 0,0 0,0 -0.004,0.006 -0.004,0.006 -0.004,0.006 0,0 0,0 -0.004,0.006 0,0 -1e-5,0 -1e-5,0 -0.71182,1.04228 -3.63632,0.37533 -8.38956,-1.79734 -3.26314,-1.69958 -8.40932,-5.04799 -12.32967,-11.0453 -1.51399,-2.29884 -2.74093,-5.39459 -2.91291,-9.25533 0.0413,-3.89333 1.32595,-7.64978 3.7679,-10.64044 3.13517,-3.7829 6.97303,-6.43328 10.84931,-8.18745 5.72502,-2.75963 11.74578,-4.51752 17.95563,-5.77398 0.93163,-0.20138 1.88179,-0.39239 2.84884,-0.56874 5.26441,-0.96003 10.65124,-1.41424 16.15133,-0.97293 4.37225,0.22394 9.09551,1.5628 13.44239,4.44859 l 0,0 c 3.55764,2.5699 5.87098,6.1168 6.92132,9.91818 l 0,0 c 0.99706,4.05523 0.80127,7.69753 0.1465,10.66011 -1.64134,7.77869 -5.35449,13.67384 -7.9927,17.11783 l 0,0 -1e-5,1e-5 0,0 c -1.72553,2.28752 -3.33438,3.95266 -4.632,4.97556 l 0,0 c -0.70092,0.55261 -1.31739,0.92543 -1.83549,1.11612 l 0,0 c -0.26676,0.0982 -0.50587,0.14846 -0.71726,0.14962 l 0,0 0,0 c -0.10688,3.9e-4 -0.20614,-0.0115 -0.29811,-0.036 -0.0462,-0.0123 -0.0905,-0.0278 -0.13291,-0.0464 -0.0442,-0.0194 -0.0856,-0.0419 -0.1256,-0.0681 z"
       id="path6242"
       inkscape:path-effect="#path-effect6244"
       inkscape:original-d="m 216.03886,210.23254 c 0,0 33.66105,-50.72868 -22.2827,-39.35029 -55.9438,11.3784 -10.4302,39.35029 -10.4302,39.35029"
       inkscape:connector-curvature="0" />
  </g>
</svg>
