<?xml version="1.0" encoding="UTF-8" standalone="no"?>
<!-- Created with Inkscape (http://www.inkscape.org/) -->

<svg
   xmlns:dc="http://purl.org/dc/elements/1.1/"
   xmlns:cc="http://creativecommons.org/ns#"
   xmlns:rdf="http://www.w3.org/1999/02/22-rdf-syntax-ns#"
   xmlns:svg="http://www.w3.org/2000/svg"
   xmlns="http://www.w3.org/2000/svg"
   xmlns:sodipodi="http://sodipodi.sourceforge.net/DTD/sodipodi-0.dtd"
   xmlns:inkscape="http://www.inkscape.org/namespaces/inkscape"
   width="103.11271mm"
   height="89.347763mm"
   viewBox="0 0 365.35999 316.58656"
   id="svg4351"
   version="1.1"
   inkscape:version="0.91 r13725"
   sodipodi:docname="w8mngr-heart.svg">
  <defs
     id="defs4353">
    <inkscape:path-effect
       fuse_tolerance="0"
       vertical_pattern="false"
       prop_units="false"
       tang_offset="0"
       normal_offset="0"
       spacing="0"
       scale_y_rel="false"
       prop_scale="1"
       copytype="single_stretched"
       pattern="m 40.914036,107.89082 c 0,-2.76 2.24,-5 5,-5 2.76,0 5,2.24 5,5 0,2.76 -2.24,5 -5,5 -2.76,0 -5,-2.24 -5,-5 z"
       is_visible="true"
       id="path-effect4311"
       effect="skeletal" />
    <inkscape:path-effect
       fuse_tolerance="0"
       vertical_pattern="false"
       prop_units="false"
       tang_offset="0"
       normal_offset="0"
       spacing="0"
       scale_y_rel="false"
       prop_scale="1"
       copytype="single_stretched"
       pattern="m 345.22503,119.40487 c 0,-2.76 2.24,-5 5,-5 2.76,0 5,2.24 5,5 0,2.76 -2.24,5 -5,5 -2.76,0 -5,-2.24 -5,-5 z"
       is_visible="true"
       id="path-effect4313"
       effect="skeletal" />
    <inkscape:path-effect
       fuse_tolerance="0"
       vertical_pattern="false"
       prop_units="false"
       tang_offset="0"
       normal_offset="0"
       spacing="0"
       scale_y_rel="false"
       prop_scale="1"
       copytype="single_stretched"
       pattern="m 74.039456,107.89082 c 0,-2.76 2.24,-5 5,-5 2.76,0 5,2.24 5,5 0,2.76 -2.24,5 -5,5 -2.76,0 -5,-2.24 -5,-5 z"
       is_visible="true"
       id="path-effect4315"
       effect="skeletal" />
    <inkscape:path-effect
       fuse_tolerance="0"
       vertical_pattern="false"
       prop_units="false"
       tang_offset="0"
       normal_offset="0"
       spacing="0"
       scale_y_rel="false"
       prop_scale="1.5"
       copytype="single_stretched"
       pattern="m 84.091786,346.54636 c 0,-2.76 2.24,-5 5,-5 2.76,0 5,2.24 5,5 0,2.76 -2.24,5 -5,5 -2.76,0 -5,-2.24 -5,-5 z"
       is_visible="true"
       id="path-effect4317"
       effect="skeletal" />
    <inkscape:path-effect
       fuse_tolerance="0"
       vertical_pattern="false"
       prop_units="false"
       tang_offset="0"
       normal_offset="0"
       spacing="0"
       scale_y_rel="false"
       prop_scale="1.5"
       copytype="single_stretched"
       pattern="m 86.364726,346.8327 c 0,-2.76 2.24,-5 5,-5 2.76,0 5,2.24 5,5 0,2.76 -2.24,5 -5,5 -2.76,0 -5,-2.24 -5,-5 z"
       is_visible="true"
       id="path-effect4319"
       effect="skeletal" />
    <clipPath
       clipPathUnits="userSpaceOnUse"
       id="clipPath28">
      <path
         d="m 0,369.455 745,0 L 745,0 0,0 0,369.455 Z"
         id="path30"
         inkscape:connector-curvature="0" />
    </clipPath>
    <clipPath
       clipPathUnits="userSpaceOnUse"
       id="clipPath16">
      <path
         d="m 0,369.455 745,0 L 745,0 0,0 0,369.455 Z"
         id="path18"
         inkscape:connector-curvature="0" />
    </clipPath>
  </defs>
  <sodipodi:namedview
     id="base"
     pagecolor="#ffffff"
     bordercolor="#666666"
     borderopacity="1.0"
     inkscape:pageopacity="0.0"
     inkscape:pageshadow="2"
     inkscape:zoom="0.35"
     inkscape:cx="-140.89143"
     inkscape:cy="-18.84958"
     inkscape:document-units="px"
     inkscape:current-layer="layer1"
     showgrid="false"
     fit-margin-top="0"
     fit-margin-left="0"
     fit-margin-right="0"
     fit-margin-bottom="0"
     inkscape:window-width="1920"
     inkscape:window-height="1017"
     inkscape:window-x="-8"
     inkscape:window-y="-8"
     inkscape:window-maximized="1" />
  <metadata
     id="metadata4356">
    <rdf:RDF>
      <cc:Work
         rdf:about="">
        <dc:format>image/svg+xml</dc:format>
        <dc:type
           rdf:resource="http://purl.org/dc/dcmitype/StillImage" />
        <dc:title></dc:title>
      </cc:Work>
    </rdf:RDF>
  </metadata>
  <g
     inkscape:label="Layer 1"
     inkscape:groupmode="layer"
     id="layer1"
     transform="translate(-211.60571,-196.92606)">
    <g
       transform="matrix(1.25,0,0,-1.25,-132.51066,521.69875)"
       id="g4267"
       style="display:inline">
      <g
         clip-path="url(#clipPath16)"
         id="g4269">
        <g
           transform="translate(421.4371,220.7999)"
           id="g4271">
          <path
             inkscape:connector-curvature="0"
             id="path4273"
             style="fill:#00b9bd;fill-opacity:1;fill-rule:nonzero;stroke:none"
             d="M 0,0 -107.125,-107.125 0,-214.251 107.126,-107.125 0,0 Z m -16.924,16.924 c -29.459,29.459 -77.666,29.459 -107.125,0 l 0,0 c -29.46,-29.46 -29.46,-77.666 0,-107.125 l 16.924,-16.924 L 0,0 -16.924,16.924 Z M 107.126,-107.125 0,0 16.924,16.924 c 29.459,29.459 77.666,29.459 107.125,0 l 0,0 c 29.46,-29.46 29.46,-77.666 0,-107.125 l -16.923,-16.924 z" />
        </g>
      </g>
    </g>
    <g
       transform="matrix(1.25,0,0,-1.25,-132.51066,521.69875)"
       id="g4275"
       style="display:inline">
      <g
         clip-path="url(#clipPath28)"
         id="g4277">
        <g
           transform="translate(421.1548,191.767)"
           id="g4279">
          <path
             inkscape:connector-curvature="0"
             id="path4281"
             style="fill:#004853;fill-opacity:1;fill-rule:nonzero;stroke:none"
             d="M 0,0 -84.609,-84.609 0,-169.218 84.609,-84.609 0,0 Z m -13.367,13.367 c -23.267,23.267 -61.341,23.267 -84.609,0 l 0,0 c -23.267,-23.268 -23.267,-61.342 0,-84.609 L -84.609,-84.609 0,0 -13.367,13.367 Z M 84.609,-84.609 0,0 13.367,13.367 c 23.267,23.267 61.341,23.267 84.609,0 l 0,0 c 23.267,-23.268 23.267,-61.342 0,-84.609 L 84.609,-84.609 Z" />
        </g>
      </g>
    </g>
    <path
       sodipodi:nodetypes="cc"
       inkscape:connector-curvature="0"
       inkscape:original-d="m 390.64035,323.41393 c -73.10973,39.44877 81.63939,111.1291 8.51067,167.57563"
       inkscape:path-effect="#path-effect4319"
       id="path4231"
       d="m 390.64035,323.41393 c 0.85067,1.57653 -3.47876,4.22115 -8.54334,10.55606 -1.72006,2.16135 -3.58383,4.88203 -4.65027,7.86021 -0.80735,2.18654 -1.27927,4.67425 -1.24793,7.27804 0.007,2.42005 0.47552,4.99278 1.28476,7.76973 0.83219,2.82574 2.05803,5.6843 3.58489,8.75179 0,0 0,0 0,0 1.58094,3.15707 3.43026,6.30559 5.52607,9.64471 4.48874,7.14808 9.0056,13.3502 14.49403,21.33218 1.02096,1.47986 2.05185,2.98583 3.0805,4.51156 4.22427,6.26554 8.12077,12.43923 11.55899,18.9162 4.41354,8.22303 7.66962,16.53964 9.13802,25.19925 0.74332,4.46873 0.87981,8.86777 0.4268,13.07982 0,0 0,10e-6 0,10e-6 -0.5239,4.76553 -1.83687,9.08456 -3.59067,12.81166 -2.35117,4.95487 -5.40009,8.8137 -8.22838,11.64414 -7.58608,7.58673 -13.65403,9.08669 -14.3228,8.22027 -1.13048,-1.46458 3.18233,-5.32694 7.98211,-13.28104 1.75116,-2.9041 3.59847,-6.48883 4.72992,-10.4322 0.86075,-2.95663 1.37748,-6.24081 1.35619,-9.70064 0,0 0,-10e-6 0,-10e-6 -0.007,-3.08248 -0.45724,-6.32469 -1.3026,-9.72939 -1.63861,-6.73268 -4.80969,-13.3332 -9.00898,-20.75367 -3.32186,-5.80075 -7.04566,-11.44974 -11.18157,-17.58746 -0.98688,-1.46454 -2.02555,-2.99926 -3.00904,-4.45663 -5.22133,-7.71154 -9.99832,-14.78762 -14.33785,-22.54613 -2.09387,-3.74115 -3.96749,-7.48992 -5.55262,-11.34923 0,0 0,0 0,0 -1.54519,-3.74073 -2.74645,-7.54105 -3.48874,-11.42657 -0.74652,-3.85482 -0.90972,-7.71885 -0.44867,-11.45401 0.52737,-4.11181 1.88707,-7.78377 3.69404,-10.85205 2.46196,-4.10834 5.55796,-7.03713 8.30225,-9.03712 7.74749,-5.6525 13.29709,-5.81792 13.75489,-4.96948 z"
       style="display:inline;fill:#00b9bd;fill-opacity:1;fill-rule:evenodd;stroke:none;stroke-width:20;stroke-linecap:butt;stroke-linejoin:miter;stroke-miterlimit:1;stroke-dasharray:none;stroke-opacity:1" />
    <path
       sodipodi:nodetypes="cc"
       inkscape:connector-curvature="0"
       inkscape:original-d="m 398.41593,323.27161 c 73.10972,39.44877 -50.1184,150.99446 -8.51068,167.57562"
       inkscape:path-effect="#path-effect4317"
       id="path4233"
       d="m 398.41593,323.27161 c 0.0282,-0.0522 12.6185,-1.33133 23.49249,15.37287 0,0 0,0 0,0 2.19961,3.45942 4.02912,7.53555 5.19856,12.13543 1.05607,4.17005 1.58812,8.61098 1.5786,13.23858 -0.0356,9.06386 -1.81425,18.20427 -4.82626,27.56631 -1.90225,5.98284 -4.19843,11.89957 -6.81177,17.86204 -1.4066,3.20925 -2.86433,6.33903 -4.32977,9.37092 -4.2224,8.75295 -9.06712,17.77938 -12.95993,25.11724 -4.40638,8.34331 -7.60103,14.28196 -10.48144,21.08799 -1.30361,3.09192 -2.30532,5.73215 -3.01442,8.35384 -0.66269,2.55099 -1.05709,4.57184 -1.03932,6.5026 0.008,1.99418 0.35671,3.63029 0.98801,4.96182 0,0 0,0 0,0 1.62137,3.74746 4.26218,4.58165 3.69457,6.00598 -0.16739,0.42004 -3.58964,1.79892 -8.22134,-2.35611 0,0 0,0 0,0 -1.79341,-1.68495 -3.44156,-4.17768 -4.25934,-7.3623 -0.74816,-2.88234 -0.96129,-6.01358 -0.67625,-9.29411 0.2681,-3.38916 0.92717,-6.82658 1.90095,-10.42601 2.0546,-7.64144 5.00836,-14.99817 8.77371,-23.46341 3.97794,-8.97886 7.31495,-15.75572 11.80692,-25.4935 1.36581,-2.96671 2.74319,-5.99403 4.07729,-9.0325 2.48742,-5.66518 4.70011,-11.08727 6.59471,-16.48912 2.95203,-8.52059 4.97475,-16.04232 5.56894,-23.41662 0.30922,-3.70763 0.27708,-7.14799 -0.15097,-10.3649 -0.46253,-3.52233 -1.35816,-6.72578 -2.55998,-9.55683 0,0 0,0 0,0 -2.53687,-6.2411 -7.18762,-11.26 -9.98546,-14.25365 -3.02719,-3.23903 -4.86511,-5.12768 -4.3585,-6.06656 z"
       style="display:inline;fill:#00b9bd;fill-opacity:1;fill-rule:evenodd;stroke:none;stroke-width:20;stroke-linecap:butt;stroke-linejoin:miter;stroke-miterlimit:1;stroke-dasharray:none;stroke-opacity:1" />
    <path
       inkscape:connector-curvature="0"
       inkscape:original-d="m 313.21477,308.28637 c 0,0 38.14041,21.87303 42.55335,43.04048"
       inkscape:path-effect="#path-effect4315"
       id="path4235"
       d="m 313.2224,308.29076 c 0.0395,-0.0679 0.086,-0.13138 0.13931,-0.1903 0,0 0,0 0,0 0.0569,-0.0546 0.12275,-0.10346 0.19731,-0.14667 0,0 0,0 0,0 0.14886,-0.0863 0.33203,-0.14961 0.54824,-0.19078 l 0,0 c 0.43123,-0.0815 0.99128,-0.0729 1.66762,0.0229 l 0,0 c 1.33645,0.18936 3.11462,0.72086 5.22534,1.58738 l 0,0 c 4.06167,1.66653 9.35965,4.57692 14.9007,8.71057 1.86884,1.38933 3.77475,2.92564 5.65745,4.61149 3.63257,3.25276 6.70078,6.63508 9.19082,10.07225 3.47727,4.67436 5.3785,9.11816 6.01836,12.75591 0.62179,3.53503 -0.0506,5.60556 -0.99943,5.80336 -1.00515,0.20955 -2.1854,-1.39791 -4.00009,-3.69307 -2.38323,-3.01423 -3.9198,-4.74384 -7.99278,-9.04641 -2.67786,-2.74504 -5.48977,-5.39887 -8.88744,-8.43375 -1.71212,-1.52931 -3.45449,-3.04997 -5.0926,-4.48136 -4.88513,-4.2549 -9.24254,-7.98311 -12.28422,-10.95973 l 0,0 c -1.5716,-1.53764 -2.79256,-2.87596 -3.54464,-3.95309 l 0,0 c -0.38174,-0.54669 -0.64488,-1.03076 -0.77565,-1.44243 l 0,0 c -0.0662,-0.20746 -0.0987,-0.39743 -0.096,-0.5683 0,0 0,0 0,0 0.001,-0.0857 0.0117,-0.1668 0.0311,-0.24302 0,0 0,0 0,0 0.025,-0.0753 0.0571,-0.147 0.0966,-0.21493 z"
       style="display:inline;fill:#00b9bd;fill-opacity:1;fill-rule:evenodd;stroke:none;stroke-width:1px;stroke-linecap:butt;stroke-linejoin:miter;stroke-opacity:1" />
    <path
       inkscape:connector-curvature="0"
       inkscape:original-d="m 476.47394,314.00923 c 0,0 -38.14041,21.87303 -42.55335,43.04047"
       inkscape:path-effect="#path-effect4313"
       id="path4237"
       d="m 476.46631,314.01362 c 0.0395,0.0679 0.0716,0.13963 0.0966,0.21493 0,0 0,0 0,0 0.0194,0.0762 0.0297,0.1573 0.0311,0.24302 0,0 0,0 0,0 0.003,0.17087 -0.0297,0.36084 -0.096,0.5683 l 0,0 c -0.13077,0.41167 -0.39391,0.89574 -0.77565,1.44243 l 0,0 c -0.75208,1.07713 -1.97304,2.41545 -3.54464,3.95309 l 0,0 c -3.04168,2.97662 -7.39909,6.70483 -12.28422,10.95973 -1.63811,1.43138 -3.38048,2.95204 -5.0926,4.48136 -3.39767,3.03487 -6.20958,5.6887 -8.88745,8.43375 -4.07297,4.30257 -5.60954,6.03217 -7.99277,9.04641 -1.81469,2.29515 -2.99494,3.90261 -4.00009,3.69306 -0.94879,-0.1978 -1.62122,-2.26833 -0.99943,-5.80336 0.63986,-3.63775 2.54109,-8.08155 6.01836,-12.75591 2.49004,-3.43716 5.55825,-6.81949 9.19083,-10.07224 1.88269,-1.68585 3.7886,-3.22217 5.65744,-4.6115 5.54105,-4.13365 10.83903,-7.04403 14.9007,-8.71056 l 0,0 c 2.11072,-0.86652 3.88889,-1.39802 5.22534,-1.58738 l 0,0 c 0.67634,-0.0958 1.23639,-0.10438 1.66762,-0.0229 l 0,0 c 0.21621,0.0412 0.39938,0.10453 0.54824,0.19078 0,0 0,0 0,0 0.0746,0.0432 0.14037,0.0921 0.19731,0.14667 0,0 0,0 0,0 0.0534,0.0589 0.0998,0.12236 0.13931,0.1903 z"
       style="display:inline;fill:#00b9bd;fill-opacity:1;fill-rule:evenodd;stroke:none;stroke-width:1px;stroke-linecap:butt;stroke-linejoin:miter;stroke-opacity:1" />
    <path
       inkscape:connector-curvature="0"
       inkscape:original-d="m 394.95069,311.84229 c 0,0 14.94843,-25.2138 -9.89544,-19.55836 -24.84387,5.65542 -4.6319,19.55836 -4.6319,19.55836"
       inkscape:path-effect="#path-effect4311"
       id="path4239"
       d="m 394.9507,311.84227 c -0.0559,-0.0324 -0.10625,-0.0702 -0.1541,-0.1152 0,0 0,0 0,0 -0.0455,-0.0428 -0.0875,-0.0914 -0.12602,-0.14533 0,0 0,0 0,0 -0.0758,-0.10633 -0.13874,-0.23457 -0.18868,-0.38309 l 0,0 0,0 c -0.0976,-0.28716 -0.15018,-0.65332 -0.16251,-1.08929 0,0 0,0 0,0 l 0,0 c -0.0233,-0.81976 0.0889,-1.88055 0.26937,-3.15989 l 0,0 0,0 c 0.25467,-1.85901 0.86412,-5.04638 0.73416,-7.46541 l 0,0 c -0.0747,-0.96028 -0.17217,-1.82827 -0.4768,-2.3043 l 0,0 c -0.20331,-0.28598 -0.43813,-0.53459 -0.57562,-0.47609 l 0,0 c -0.20369,-0.19638 -0.93505,-0.17383 -2.02732,-0.31455 -1.40836,-0.0768 -2.98552,0.16085 -4.82914,0.51694 -0.40926,0.079 -0.82836,0.16322 -1.25011,0.24824 -4.49303,1.38644 -7.5093,1.53284 -8.75717,3.27834 -0.25497,0.20217 -0.50747,0.45258 -0.59374,0.63255 -0.18322,0.27709 -0.12439,0.86832 -0.0133,1.53978 0.31369,1.71589 1.62372,3.85423 2.36646,5.21688 1.22862,1.8934 1.75406,3.34027 1.26344,4.01202 0,0 0,0 0,0 0,0 0,0 0,0 0,0 0,0 0,0 0,0 0,1e-5 0,1e-5 0,0 0,0 0,0 0,0 0,0 0,0 0,0 0,0 0,0 0,0 0,0 0,0 0,0 0,0 0,0 0,0 0,0 0,0 0,0 0,0 0,0 0,0 0,0 0,0 0,0 0,0 0,0 0,0 -10e-6,0 -10e-6,0 0,0 0,10e-6 0,10e-6 0,0 0,0 0,0 0,0 0,0 0,0 0,0 0,0 0,0 -0.006,0.008 -0.006,0.008 -0.006,0.008 0,0 10e-6,1e-5 -0.006,0.008 0,0 0,0 0,0 0,0 0,0 0,0 0,0 0,1e-5 0,1e-5 0,0 0,0 0,0 0,0 0,0 0,0 0,0 0,0 0,0 0,0 0,0 0,0 0,0 0,0 0,0 0,0 -1e-5,0 -1e-5,0 0,0 0,0 0,0 0,0 0,10e-6 0,10e-6 0,0 0,0 0,0 0,0 0,0 0,0 0,0 0,0 0,0 0,0 0,0 0,0 0,0 0,0 0,0 0,0 0,0 0,0 0,0 0,0 0,0 -0.50928,0.66069 -1.98688,0.46368 -4.29481,-0.52639 -1.64699,-0.81317 -4.12557,-2.47423 -6.08417,-5.57853 -0.76895,-1.22145 -1.38518,-2.85375 -1.50675,-4.90907 -0.0258,-2.05203 0.54761,-4.09344 1.7695,-5.82628 3.63776,-4.66185 8.84308,-6.86431 13.64578,-7.59684 0.49621,-0.12397 1.00828,-0.24008 1.53531,-0.34493 2.36366,-0.47025 4.87466,-0.68247 7.49492,-0.45706 2.20205,0.10673 4.64,0.93125 6.91039,2.58748 l 0,0 c 1.90984,1.5934 3.03007,3.57674 3.47112,5.58293 l 0,0 c 0.44309,2.18764 0.31335,4.0809 -0.0402,5.59949 l 0,0 c -0.88093,3.98441 -2.71325,6.90438 -4.10006,8.62775 l 0,0 0,0 c -0.88729,1.12215 -1.72968,1.92602 -2.43981,2.40504 l 0,0 c 0,0 -1e-5,0 -1e-5,0 -0.38163,0.25747 -0.72677,0.42436 -1.02977,0.49868 l 0,0 0,0 c -0.15534,0.0376 -0.2988,0.0513 -0.43043,0.0405 0,0 0,0 0,0 -0.0666,-0.005 -0.13002,-0.0171 -0.19017,-0.0351 0,0 -10e-6,0 -10e-6,0 -0.0631,-0.0189 -0.12119,-0.0437 -0.17711,-0.0761 z"
       style="display:inline;fill:#00b9bd;fill-opacity:1;fill-rule:evenodd;stroke:none;stroke-width:1px;stroke-linecap:butt;stroke-linejoin:miter;stroke-opacity:1" />
  </g>
</svg>
