<?xml version="1.0" encoding="UTF-8" standalone="no"?>
<!-- Created with Inkscape (http://www.inkscape.org/) -->

<svg
   xmlns:dc="http://purl.org/dc/elements/1.1/"
   xmlns:cc="http://creativecommons.org/ns#"
   xmlns:rdf="http://www.w3.org/1999/02/22-rdf-syntax-ns#"
   xmlns:svg="http://www.w3.org/2000/svg"
   xmlns="http://www.w3.org/2000/svg"
   xmlns:sodipodi="http://sodipodi.sourceforge.net/DTD/sodipodi-0.dtd"
   xmlns:inkscape="http://www.inkscape.org/namespaces/inkscape"
   width="198.86816mm"
   height="188.39774mm"
   viewBox="0 0 704.65098 667.55103"
   id="svg4983"
   version="1.1"
   inkscape:version="0.91 r13725"
   sodipodi:docname="w8mngr-forweb.svg">
  <defs
     id="defs4985">
    <inkscape:path-effect
       effect="skeletal"
       id="path-effect6244"
       is_visible="true"
       pattern="m -150.25277,72.251899 c 0,-2.76 2.24,-5 5,-5 2.76,0 5,2.24 5,5 0,2.76 -2.24,5 -5,5 -2.76,0 -5,-2.24 -5,-5 z"
       copytype="single_stretched"
       prop_scale="1"
       scale_y_rel="false"
       spacing="0"
       normal_offset="0"
       tang_offset="0"
       prop_units="false"
       vertical_pattern="false"
       fuse_tolerance="0" />
    <inkscape:path-effect
       effect="skeletal"
       id="path-effect6220-0"
       is_visible="true"
       pattern="m 154.05823,83.765939 c 0,-2.76 2.24,-5 5,-5 2.76,0 5,2.24 5,5 0,2.76 -2.24,5 -5,5 -2.76,0 -5,-2.24 -5,-5 z"
       copytype="single_stretched"
       prop_scale="1"
       scale_y_rel="false"
       spacing="0"
       normal_offset="0"
       tang_offset="0"
       prop_units="false"
       vertical_pattern="false"
       fuse_tolerance="0" />
    <inkscape:path-effect
       effect="skeletal"
       id="path-effect6220"
       is_visible="true"
       pattern="m -117.12737,72.251899 c 0,-2.76 2.24,-5 5,-5 2.76,0 5,2.24 5,5 0,2.76 -2.24,5 -5,5 -2.76,0 -5,-2.24 -5,-5 z"
       copytype="single_stretched"
       prop_scale="1"
       scale_y_rel="false"
       spacing="0"
       normal_offset="0"
       tang_offset="0"
       prop_units="false"
       vertical_pattern="false"
       fuse_tolerance="0" />
    <inkscape:path-effect
       effect="skeletal"
       id="path-effect6198-4"
       is_visible="true"
       pattern="m -107.07497,310.90744 c 0,-2.76 2.24,-5 5,-5 2.759999,0 4.999999,2.24 4.999999,5 0,2.76 -2.24,5 -4.999999,5 -2.76,0 -5,-2.24 -5,-5 z"
       copytype="single_stretched"
       prop_scale="1.5"
       scale_y_rel="false"
       spacing="0"
       normal_offset="0"
       tang_offset="0"
       prop_units="false"
       vertical_pattern="false"
       fuse_tolerance="0" />
    <inkscape:path-effect
       effect="skeletal"
       id="path-effect6198"
       is_visible="true"
       pattern="m -104.80207,311.19378 c 0,-2.76 2.24,-5 4.999999,-5 2.76,0 5,2.24 5,5 0,2.76 -2.24,5 -5,5 -2.759999,0 -4.999999,-2.24 -4.999999,-5 z"
       copytype="single_stretched"
       prop_scale="1.5"
       scale_y_rel="false"
       spacing="0"
       normal_offset="0"
       tang_offset="0"
       prop_units="false"
       vertical_pattern="false"
       fuse_tolerance="0" />
    <clipPath
       clipPathUnits="userSpaceOnUse"
       id="clipPath28">
      <path
         d="m 0,369.455 745,0 L 745,0 0,0 0,369.455 Z"
         id="path30"
         inkscape:connector-curvature="0" />
    </clipPath>
    <clipPath
       clipPathUnits="userSpaceOnUse"
       id="clipPath16">
      <path
         d="m 0,369.455 745,0 L 745,0 0,0 0,369.455 Z"
         id="path18"
         inkscape:connector-curvature="0" />
    </clipPath>
    <clipPath
       clipPathUnits="userSpaceOnUse"
       id="clipPath40">
      <path
         d="m 0,369.455 745,0 L 745,0 0,0 0,369.455 Z"
         id="path42"
         inkscape:connector-curvature="0" />
    </clipPath>
  </defs>
  <sodipodi:namedview
     id="base"
     pagecolor="#ffffff"
     bordercolor="#666666"
     borderopacity="1.0"
     inkscape:pageopacity="0.0"
     inkscape:pageshadow="2"
     inkscape:zoom="0.35"
     inkscape:cx="-290.34898"
     inkscape:cy="853.26531"
     inkscape:document-units="px"
     inkscape:current-layer="layer1"
     showgrid="false"
     inkscape:window-width="1920"
     inkscape:window-height="1017"
     inkscape:window-x="-8"
     inkscape:window-y="-8"
     inkscape:window-maximized="1"
     fit-margin-top="0"
     fit-margin-left="0"
     fit-margin-right="0"
     fit-margin-bottom="0" />
  <metadata
     id="metadata4988">
    <rdf:RDF>
      <cc:Work
         rdf:about="">
        <dc:format>image/svg+xml</dc:format>
        <dc:type
           rdf:resource="http://purl.org/dc/dcmitype/StillImage" />
        <dc:title />
      </cc:Work>
    </rdf:RDF>
  </metadata>
  <g
     inkscape:label="Layer 1"
     inkscape:groupmode="layer"
     id="layer1"
     transform="translate(-19.817349,-151.15812)">
    <g
       style="display:inline"
       id="g36"
       transform="matrix(1.25,0,0,-1.25,-9.952071,791.85174)">
      <g
         id="g38"
         clip-path="url(#clipPath40)"
         transform="translate(-2.2713415,45.426829)">
        <g
           transform="scale(1,-1)"
           style="font-variant:normal;font-weight:600;font-stretch:normal;font-size:208px;line-height:100%;font-family:'Futura PT Heavy';-inkscape-font-specification:FuturaPT-Heavy;writing-mode:lr-tb;fill:#007e80;fill-opacity:1;fill-rule:nonzero;stroke:none"
           id="text44">
          <path
             d="m 170.21717,-292.39071 -11.9072,93.5008 -35.7216,0 -7.6128,-39.4304 -1.3664,0 -7.4176,39.4304 -34.940797,0 -11.9072,-93.5008 30.060799,0 4.0992,47.2384 1.5616,0 6.636798,-47.2384 27.1328,0 6.4416,47.2384 1.7568,0 4.2944,-47.2384 28.8896,0 z"
             style="font-style:normal;font-variant:normal;font-weight:normal;font-stretch:normal;font-size:195.19999695px;line-height:100%;font-family:'Passion One';-inkscape-font-specification:'Passion One, Normal';text-align:start;letter-spacing:-0.024px;writing-mode:lr-tb;text-anchor:start"
             id="path4162" />
          <path
             d="m 297.45178,-285.55871 q 10.736,-9.1744 23.6192,-9.1744 12.8832,0 17.9584,6.0512 5.2704,5.856 5.2704,17.7632 l 0,72.0288 -33.184,0 0,-60.9024 q 0,-4.88 -4.2944,-4.88 -5.4656,0 -9.1744,2.7328 l 0,63.0496 -33.184,0 0,-60.9024 q 0,-4.88 -4.2944,-4.88 -5.4656,0 -9.1744,2.7328 l 0,63.0496 -32.7936,0 0,-93.5008 29.8656,0 1.952,6.832 0.7808,0 q 10.736,-9.1744 25.376,-9.1744 14.8352,0 19.3248,10.9312 l 1.952,-1.7568 z"
             style="font-style:normal;font-variant:normal;font-weight:normal;font-stretch:normal;font-size:195.19999695px;line-height:100%;font-family:'Passion One';-inkscape-font-specification:'Passion One, Normal';text-align:start;letter-spacing:-0.024px;writing-mode:lr-tb;text-anchor:start"
             id="path4164" />
          <path
             d="m 388.4062,-285.55871 q 10.736,-9.1744 23.6192,-9.1744 12.8832,0 17.9584,6.0512 5.2704,5.856 5.2704,17.7632 l 0,72.0288 -33.184,0 0,-60.9024 q 0,-4.88 -4.2944,-4.88 -5.4656,0 -9.1744,2.7328 l 0,63.0496 -32.7936,0 0,-93.5008 29.8656,0 1.952,6.832 0.7808,0 z"
             style="font-style:normal;font-variant:normal;font-weight:normal;font-stretch:normal;font-size:195.19999695px;line-height:100%;font-family:'Passion One';-inkscape-font-specification:'Passion One, Normal';text-align:start;letter-spacing:-0.024px;writing-mode:lr-tb;text-anchor:start"
             id="path4166" />
          <path
             d="m 475.20656,-190.30111 20.1056,0 q 3.5136,0 3.5136,-3.1232 l 0,-0.7808 q 0,-2.928 -3.5136,-2.928 l -20.1056,0 q -3.1232,0 -3.1232,3.1232 l 0,0.7808 q 0,2.928 3.1232,2.928 z m 7.808,-104.432 46.0672,0 0,21.8624 -14.0544,0 0,0.976 q 6.2464,5.4656 6.2464,14.2496 0,31.232 -35.3312,31.232 l -9.3696,0 q -3.5136,0 -3.5136,3.3184 0,3.1232 3.3184,3.1232 l 26.5472,0 q 22.448,0 22.448,19.52 0,16.0064 -10.736,23.0336 -10.736,7.2224 -29.6704,7.2224 -18.9344,0 -28.6944,-4.0992 -9.5648,-3.904 -9.5648,-14.8352 0,-6.0512 7.6128,-10.1504 l 0,-0.7808 q -9.5648,-5.2704 -9.5648,-15.2256 0,-11.712 15.0304,-17.7632 -7.0272,-5.0752 -10.5408,-11.712 -3.3184,-6.832 -3.3184,-17.9584 0,-15.4208 9.9552,-23.6192 10.1504,-8.3936 27.1328,-8.3936 z m 8.5888,37.4784 q 0,-6.2464 -1.5616,-8.9792 -1.3664,-2.928 -5.2704,-2.928 -3.904,0 -5.4656,2.928 -1.3664,2.7328 -1.3664,8.5888 0,11.9072 7.0272,11.9072 6.6368,0 6.6368,-11.5168 z"
             style="font-style:normal;font-variant:normal;font-weight:normal;font-stretch:normal;font-size:195.19999695px;line-height:100%;font-family:'Passion One';-inkscape-font-specification:'Passion One, Normal';text-align:start;letter-spacing:-0.024px;writing-mode:lr-tb;text-anchor:start"
             id="path4168" />
          <path
             d="m 566.96927,-251.39871 0,52.5088 -32.4032,0 0,-93.5008 28.4992,0 1.952,5.6608 0.7808,0 q 4.4896,-5.0752 8.9792,-6.4416 4.6848,-1.5616 15.0304,-1.5616 l -1.3664,31.232 -8.9792,0 q -7.6128,0 -10.1504,2.3424 -2.3424,2.3424 -2.3424,9.76 z"
             style="font-style:normal;font-variant:normal;font-weight:normal;font-stretch:normal;font-size:195.19999695px;line-height:100%;font-family:'Passion One';-inkscape-font-specification:'Passion One, Normal';text-align:start;letter-spacing:-0.024px;writing-mode:lr-tb;text-anchor:start"
             id="path4170" />
        </g>
      </g>
    </g>
    <g
       style="display:inline"
       id="g12"
       transform="matrix(1.25,0,0,-1.25,-116.28727,826.89527)">
      <g
         id="g14"
         clip-path="url(#clipPath16)">
        <g
           id="g20"
           transform="translate(421.4371,220.7999)">
          <path
             d="M 0,0 -107.125,-107.125 0,-214.251 107.126,-107.125 0,0 Z m -16.924,16.924 c -29.459,29.459 -77.666,29.459 -107.125,0 l 0,0 c -29.46,-29.46 -29.46,-77.666 0,-107.125 l 16.924,-16.924 L 0,0 -16.924,16.924 Z M 107.126,-107.125 0,0 16.924,16.924 c 29.459,29.459 77.666,29.459 107.125,0 l 0,0 c 29.46,-29.46 29.46,-77.666 0,-107.125 l -16.923,-16.924 z"
             style="fill:#00b9bd;fill-opacity:1;fill-rule:nonzero;stroke:none"
             id="path22"
             inkscape:connector-curvature="0" />
        </g>
      </g>
    </g>
    <g
       style="display:inline"
       id="g24"
       transform="matrix(1.25,0,0,-1.25,-116.28727,826.89527)">
      <g
         id="g26"
         clip-path="url(#clipPath28)">
        <g
           id="g32"
           transform="translate(421.1548,191.767)">
          <path
             d="M 0,0 -84.609,-84.609 0,-169.218 84.609,-84.609 0,0 Z m -13.367,13.367 c -23.267,23.267 -61.341,23.267 -84.609,0 l 0,0 c -23.267,-23.268 -23.267,-61.342 0,-84.609 L -84.609,-84.609 0,0 -13.367,13.367 Z M 84.609,-84.609 0,0 13.367,13.367 c 23.267,23.267 61.341,23.267 84.609,0 l 0,0 c 23.267,-23.268 23.267,-61.342 0,-84.609 L 84.609,-84.609 Z"
             style="fill:#004853;fill-opacity:1;fill-rule:nonzero;stroke:none"
             id="path34"
             inkscape:connector-curvature="0" />
        </g>
      </g>
    </g>
    <path
       style="display:inline;fill:#00b9bd;fill-opacity:1;fill-rule:evenodd;stroke:none;stroke-width:20;stroke-linecap:butt;stroke-linejoin:miter;stroke-miterlimit:1;stroke-dasharray:none;stroke-opacity:1"
       d="m 194.21093,220.38202 c 0.99511,2.0641 -9.31239,5.99017 -22.60552,18.6179 -4.43437,4.22597 -9.42889,9.79905 -12.69693,16.44112 -2.36989,4.75677 -3.98974,10.33657 -4.25846,16.26651 -0.28166,5.46494 0.57981,11.24187 2.31024,17.2794 1.79641,6.22492 4.51971,12.41008 7.9137,18.85712 0,0 0,1e-5 0,1e-5 3.5563,6.73094 7.71411,13.34728 12.39311,20.22886 9.98249,14.6759 20.37273,27.6947 32.49457,43.51476 2.14129,2.7898 4.30458,5.62083 6.46251,8.47658 9.59264,12.69464 18.41411,25.01057 26.26852,37.97796 4.8052,7.93416 9.06817,15.89419 12.63956,24.06636 3.55254,8.11341 6.29234,16.2787 8.00775,24.54174 1.76099,8.46818 2.28735,16.81922 1.55511,24.81297 0,0 -10e-6,1e-5 -10e-6,1e-5 -0.8471,9.04207 -3.34885,17.28314 -6.7421,24.36726 -4.61797,9.59028 -10.77879,17.18679 -16.39638,22.81467 -15.54679,15.58179 -27.80362,19.43662 -28.18127,18.88902 -1.32373,-1.91941 9.30178,-8.27055 22.04524,-24.37035 4.54473,-5.74654 9.4793,-13.10014 12.78331,-21.60162 2.44709,-6.25548 4.10871,-13.36343 4.39731,-20.92614 0,0 0,-1e-5 0,-1e-5 0.27387,-6.71822 -0.54,-13.78005 -2.33921,-21.07783 -1.76534,-7.151 -4.47167,-14.31803 -7.91374,-21.66664 -3.47357,-7.40111 -7.61421,-14.70699 -12.30257,-22.17982 -7.68709,-12.2543 -16.29758,-24.02876 -25.79474,-36.60177 -2.12735,-2.81633 -4.27709,-5.64428 -6.39423,-8.43036 -11.86043,-15.58134 -22.52563,-29.41864 -32.42944,-44.76581 -4.70779,-7.29223 -8.93656,-14.53495 -12.55404,-22.00969 0,0 -1e-5,-10e-6 -1e-5,-10e-6 -3.47018,-7.14564 -6.23615,-14.34698 -8.0148,-21.74054 -1.74933,-7.21812 -2.33877,-14.43709 -1.59309,-21.39764 0.8547,-7.65497 3.42452,-14.52339 6.86993,-20.21013 4.79083,-7.82765 11.03081,-13.5538 16.46973,-17.55532 15.95114,-11.76444 27.37218,-13.10347 27.60595,-12.61857 z"
       id="path6196"
       inkscape:path-effect="#path-effect6198"
       inkscape:original-d="M 194.21093,220.38202 C 29.581429,299.75061 378.0476,443.9672 213.37533,557.53427"
       inkscape:connector-curvature="0"
       sodipodi:nodetypes="cc" />
    <path
       style="display:inline;fill:#00b9bd;fill-opacity:1;fill-rule:evenodd;stroke:none;stroke-width:20;stroke-linecap:butt;stroke-linejoin:miter;stroke-miterlimit:1;stroke-dasharray:none;stroke-opacity:1"
       d="m 211.72003,220.09567 c 0.29189,-0.60544 12.14416,1.00933 28.5168,13.42077 6.12651,4.64695 12.935,11.12929 18.60466,19.74899 4.31387,6.58678 7.90695,14.39766 10.13267,23.22702 -10e-6,0 0,2e-5 0,2e-5 1.99578,7.95473 2.8861,16.46641 2.66345,25.3593 -0.21403,8.69709 -1.4029,17.52854 -3.40067,26.50986 -2.0007,9.01688 -4.72926,17.99966 -8.04274,27.0673 -4.30272,11.77052 -9.41787,23.3927 -15.189,35.15854 -3.15408,6.43037 -6.41313,12.7188 -9.67255,18.82046 -9.1106,17.07361 -20.2367,36.18299 -28.45618,50.70304 -4.57929,8.09157 -8.68662,15.47603 -12.57608,22.92036 0,0 0,10e-6 0,10e-6 -3.81891,7.3159 -7.07655,13.97063 -9.87691,20.6219 -2.6883,6.4144 -4.72145,12.10352 -6.02262,17.75763 -1.21371,5.4166 -1.7336,10.02707 -1.23466,14.32175 0.50344,4.55301 2.12581,8.3221 4.18753,11.10506 1.44966,1.98614 3.17011,3.61656 4.65869,4.86615 4.07543,3.41975 6.86697,4.63482 6.54321,5.54409 -0.18485,0.51915 -3.4644,0.78079 -8.89895,-1.80996 -2.02592,-0.96638 -4.42696,-2.43114 -6.73155,-4.60384 -3.26658,-3.12391 -6.25083,-7.74395 -7.62853,-13.69034 -1.23524,-5.38795 -1.31778,-11.22752 -0.41708,-17.46029 0.90751,-6.51335 2.64286,-13.06711 5.04588,-20.02632 2.48997,-7.24442 5.51302,-14.48867 9.05982,-22.17923 0,0 1e-5,-10e-6 1e-5,-10e-6 3.60277,-7.81857 7.52268,-15.62554 11.84619,-23.91327 23.1231,-44.33661 3.16215,-4.92721 27.31412,-51.12279 3.15294,-6.03722 6.32143,-12.21672 9.38912,-18.46486 5.6218,-11.4502 10.61864,-22.54981 14.86931,-33.69524 3.26961,-8.56963 6.00216,-16.89085 8.06663,-25.15792 2.05139,-8.23459 3.41065,-16.13844 3.89802,-23.83954 0.49364,-7.85371 0.11001,-15.24698 -1.23126,-22.12952 0,0 0,-10e-6 0,-10e-6 -1.47126,-7.60779 -4.07515,-14.48478 -7.33812,-20.4165 -4.25674,-7.77926 -9.7833,-14.16743 -14.82493,-19.06455 -13.62217,-13.23437 -24.235,-17.5438 -23.25428,-19.57806 z"
       id="path6196-3"
       inkscape:path-effect="#path-effect6198-4"
       inkscape:original-d="m 211.72003,220.09567 c 164.6295,79.3686 -112.8572,303.79193 -19.1644,337.15225"
       inkscape:connector-curvature="0"
       sodipodi:nodetypes="cc" />
    <path
       style="display:inline;fill:#00b9bd;fill-opacity:1;fill-rule:evenodd;stroke:none;stroke-width:1px;stroke-linecap:butt;stroke-linejoin:miter;stroke-opacity:1"
       d="m 19.862937,189.94626 c 0.01822,-0.0353 0.04185,-0.0677 0.07086,-0.0972 0.02839,-0.0289 0.06191,-0.0551 0.100538,-0.0784 0.07714,-0.0467 0.174474,-0.0822 0.291649,-0.10692 0,0 1e-6,0 1e-6,0 l 0,0 c 0.234013,-0.0491 0.546336,-0.0543 0.933748,-0.0166 l 0,0 c 0.77121,0.0751 1.833759,0.32018 3.161894,0.7315 l 0,0 c 2.625748,0.81319 6.247423,2.26234 10.653244,4.33448 l 0,0 c 8.441737,3.96944 19.756864,10.21146 31.836833,18.6007 3.760899,2.60726 7.619574,5.43347 11.466208,8.47882 8.357914,6.61691 15.462049,13.32355 21.437173,20.18397 0,0 3e-6,0 3e-6,0 5.173007,5.93463 9.006437,11.52008 11.774287,16.82377 5.43425,10.35995 5.26857,17.46721 4.09576,17.74086 -1.20561,0.28131 -3.65817,-5.86039 -9.84161,-14.15005 -3.34731,-4.4666 -7.291752,-8.98002 -12.60741,-14.26906 0,0 -3e-6,-1e-5 -3e-6,-1e-5 -6.142306,-6.10722 -12.962342,-12.07155 -21.067863,-18.48195 -3.693413,-2.921 -7.394166,-5.73023 -10.961169,-8.39022 -11.385884,-8.47641 -21.959507,-15.6891 -29.380933,-20.97234 l 0,0 c -3.884361,-2.76488 -7.021147,-5.07715 -9.085154,-6.80598 l 0,0 c -1.051817,-0.881 -1.841224,-1.62364 -2.331117,-2.21165 l 0,0 c -0.246775,-0.2962 -0.418635,-0.55472 -0.511393,-0.77324 l 0,0 c 0,0 0,0 0,0 -0.04663,-0.1097 -0.07335,-0.20955 -0.07966,-0.29921 -0.0032,-0.0449 -0.0012,-0.0873 0.0059,-0.12717 0.0073,-0.0407 0.01997,-0.0787 0.03819,-0.11401 z"
       id="path6218"
       inkscape:path-effect="#path-effect6220"
       inkscape:original-d="m 19.862929,189.94626 c 0,0 85.885101,44.00724 95.822201,86.59489"
       inkscape:connector-curvature="0" />
    <path
       style="display:inline;fill:#00b9bd;fill-opacity:1;fill-rule:evenodd;stroke:none;stroke-width:1px;stroke-linecap:butt;stroke-linejoin:miter;stroke-opacity:1"
       d="m 387.49215,201.46031 c 0.0182,0.0353 0.0309,0.0733 0.0382,0.11401 0.007,0.0398 0.009,0.0822 0.006,0.12717 -0.006,0.0897 -0.033,0.18951 -0.0797,0.29921 0,0 0,0 0,0 l 0,0 c -0.0928,0.21852 -0.26462,0.47704 -0.51139,0.77324 l 0,0 c -0.4899,0.58801 -1.2793,1.33065 -2.33112,2.21165 l 0,0 c -2.06401,1.72883 -5.20079,4.0411 -9.08515,6.80598 l 0,0 c -7.42143,5.28324 -17.99505,12.49593 -29.38094,20.97234 -3.567,2.65999 -7.26776,5.46922 -10.96117,8.39022 -8.10552,6.41041 -14.92556,12.37473 -21.06787,18.48195 0,0 0,1e-5 0,1e-5 -5.31566,5.28904 -9.2601,9.80247 -12.60741,14.26906 -6.18345,8.28966 -8.63601,14.43136 -9.84162,14.15005 -1.17281,-0.27365 -1.33848,-7.38091 4.09577,-17.74086 2.76785,-5.30369 6.60128,-10.88914 11.77429,-16.82377 0,0 0,0 0,0 5.97513,-6.86042 13.07926,-13.56706 21.43718,-20.18397 3.84663,-3.04535 7.70531,-5.87156 11.46621,-8.47882 12.07997,-8.38924 23.3951,-14.63126 31.83683,-18.6007 l 0,0 c 4.40582,-2.07214 8.0275,-3.52129 10.65325,-4.33448 l 0,0 c 1.32813,-0.41132 2.39068,-0.65644 3.16189,-0.7315 l 0,0 c 0.38741,-0.0377 0.69974,-0.0325 0.93375,0.0166 l 0,0 c 0,0 0,0 0,0 0.11718,0.0247 0.21451,0.0602 0.29165,0.10692 0.0386,0.0234 0.0721,0.0495 0.10054,0.0784 0.029,0.0295 0.0526,0.0619 0.0709,0.0972 z"
       id="path6218-1"
       inkscape:path-effect="#path-effect6220-0"
       inkscape:original-d="m 387.49216,201.46031 c 0,0 -85.8851,44.00724 -95.82222,86.59489"
       inkscape:connector-curvature="0" />
    <path
       style="display:inline;fill:#00b9bd;fill-opacity:1;fill-rule:evenodd;stroke:none;stroke-width:1px;stroke-linecap:butt;stroke-linejoin:miter;stroke-opacity:1"
       d="m 203.91704,197.10055 c -0.0266,-0.0175 -0.0507,-0.0379 -0.0729,-0.0619 -0.0213,-0.023 -0.0405,-0.0489 -0.0578,-0.0778 -0.0343,-0.0573 -0.0608,-0.12636 -0.0797,-0.20672 l 0,0 0,0 c -0.0374,-0.1581 -0.0459,-0.36114 -0.0268,-0.60668 l 0,0 c 0.0369,-0.47621 0.1762,-1.11847 0.40055,-1.91242 l 0,0 c 0.42641,-1.50931 1.1267,-3.47229 1.99411,-6.00708 l 0,0 0,0 0,0 c 1.24553,-3.68208 3.45887,-9.89209 3.751,-15.57384 l 0,0 c 0.0875,-2.1775 0.0123,-4.42257 -0.71609,-6.15083 l 0,0 c -0.54461,-1.42256 -1.62948,-2.77734 -2.97596,-3.55259 l 0,0 c -1.85964,-1.26037 -4.58332,-1.64081 -7.81053,-1.90408 -4.11707,-0.22838 -8.42672,0.28066 -13.11331,1.11691 -0.85928,0.15332 -1.72053,0.31561 -2.57956,0.4824 -5.78805,1.18162 -10.89416,2.4343 -15.54011,4.41058 -3.12063,1.40336 -5.67118,2.68407 -7.30267,4.52312 l 0,0 c -1.07396,1.17239 -1.82878,2.51568 -1.91645,3.73969 l 0,0 c -0.23152,1.3569 0.2478,3.04794 0.86896,4.64542 l 0,0 c 1.71753,4.24012 5.53323,8.34915 7.70438,10.77863 l 0,0 c 1.55641,1.72094 2.76895,3.00941 3.6372,4.07374 l 0,0 c 0.45582,0.55868 0.79071,1.02746 0.98553,1.40221 l 0,0 c 0.10079,0.19387 0.16439,0.36415 0.18886,0.50931 l 0,0 c 0.012,0.0735 0.0142,0.14116 0.006,0.20237 l 0,0 0,0 c -0.0337,0.0793 -0.0483,0.12165 -0.0544,0.14418 -0.006,0.0222 -0.004,0.0251 -0.003,0.0254 0,0 0,0 0,0 0,0 0,0 0,0 0,0 0,0 0,0 1e-5,1e-5 1e-5,1e-5 1e-5,1e-5 0,0 0,0 -2e-5,0 0,0 0,0 0,0 0,0 0,0 0,0 0,0 0,0 0,0 -3.1e-4,-1.3e-4 -0.004,-9.3e-4 -0.0212,0.0144 -0.0175,0.0155 -0.0488,0.0474 -0.1047,0.11297 l 0,0 0,0 c -0.052,0.034 -0.11472,0.0607 -0.18834,0.0803 l 0,0 c -0.14435,0.0391 -0.32878,0.0504 -0.55247,0.0339 l 0,0 c -0.43303,-0.0319 -1.00982,-0.16899 -1.71819,-0.41672 l 0,0 c -1.29629,-0.45322 -3.0756,-1.29542 -5.14894,-2.58017 l 0,0 c -3.04086,-1.85199 -7.90327,-5.32031 -11.33766,-10.9411 l 0,0 c -1.33495,-2.15845 -2.41331,-4.9735 -2.50413,-8.33335 l 0,0 c 0.0506,-3.35957 1.22927,-6.63318 3.39762,-9.26028 l 0,0 c 2.83419,-3.39403 6.41506,-5.77069 10.13998,-7.45459 5.50848,-2.60281 11.34775,-4.25996 17.47252,-5.5013 0.91716,-0.19447 1.84946,-0.37972 2.795,-0.55148 5.14871,-0.93524 10.32037,-1.40047 15.54371,-1.00172 4.14322,0.23176 8.46662,1.37903 12.31602,3.93969 l 0,0 c 3.11555,2.21108 5.18291,5.31934 6.13225,8.64506 l 0,0 c 0.9437,3.58948 0.80136,6.95305 0.26042,9.75826 -1.36711,7.369 -4.78908,13.30772 -7.14437,16.80903 0,0 0,0 0,0 l 0,0 c -1.55033,2.32862 -2.98462,4.07005 -4.10442,5.18187 l 0,0 c -0.60561,0.60135 -1.12664,1.02711 -1.5485,1.27538 l 0,0 c -0.21712,0.12776 -0.40691,0.20836 -0.56844,0.24103 l 0,0 0,0 c -0.0817,0.0164 -0.15587,0.0207 -0.22255,0.0125 -0.0335,-0.004 -0.0651,-0.0113 -0.0948,-0.0216 -0.0309,-0.0108 -0.0593,-0.0247 -0.0859,-0.0421 z"
       id="path6242"
       inkscape:path-effect="#path-effect6244"
       inkscape:original-d="m 203.91703,197.10056 c 0,0 33.66105,-50.72868 -22.2827,-39.35029 -55.9438,11.3784 -10.4302,39.35029 -10.4302,39.35029"
       inkscape:connector-curvature="0" />
  </g>
</svg>
