<?xml version="1.0" encoding="UTF-8" standalone="no"?>
<!-- Created with Inkscape (http://www.inkscape.org/) -->

<svg
   xmlns:dc="http://purl.org/dc/elements/1.1/"
   xmlns:cc="http://creativecommons.org/ns#"
   xmlns:rdf="http://www.w3.org/1999/02/22-rdf-syntax-ns#"
   xmlns:svg="http://www.w3.org/2000/svg"
   xmlns="http://www.w3.org/2000/svg"
   xmlns:sodipodi="http://sodipodi.sourceforge.net/DTD/sodipodi-0.dtd"
   xmlns:inkscape="http://www.inkscape.org/namespaces/inkscape"
   id="svg2"
   version="1.1"
   inkscape:version="0.91 r13725"
   xml:space="preserve"
   width="1000"
   height="1000"
   viewBox="0 0 1000 1000"
   sodipodi:docname="w8mngr logo.svg"><metadata
     id="metadata8"><rdf:RDF><cc:Work
         rdf:about=""><dc:format>image/svg+xml</dc:format><dc:type
           rdf:resource="http://purl.org/dc/dcmitype/StillImage" /><dc:title /></cc:Work></rdf:RDF></metadata><defs
     id="defs6"><inkscape:path-effect
       fuse_tolerance="0"
       vertical_pattern="false"
       prop_units="false"
       tang_offset="0"
       normal_offset="0"
       spacing="0"
       scale_y_rel="false"
       prop_scale="1.5"
       copytype="single_stretched"
       pattern="m 475.64656,816.68566 c 0,-2.76 2.24,-5 5,-5 2.76,0 5,2.24 5,5 0,2.76 -2.24,5 -5,5 -2.76,0 -5,-2.24 -5,-5 z"
       is_visible="true"
       id="path-effect4319"
       effect="skeletal" /><inkscape:path-effect
       fuse_tolerance="0"
       vertical_pattern="false"
       prop_units="false"
       tang_offset="0"
       normal_offset="0"
       spacing="0"
       scale_y_rel="false"
       prop_scale="1.5"
       copytype="single_stretched"
       pattern="m 473.37362,816.39932 c 0,-2.76 2.24,-5 5,-5 2.76,0 5,2.24 5,5 0,2.76 -2.24,5 -5,5 -2.76,0 -5,-2.24 -5,-5 z"
       is_visible="true"
       id="path-effect4317"
       effect="skeletal" /><inkscape:path-effect
       fuse_tolerance="0"
       vertical_pattern="false"
       prop_units="false"
       tang_offset="0"
       normal_offset="0"
       spacing="0"
       scale_y_rel="false"
       prop_scale="1"
       copytype="single_stretched"
       pattern="m 463.32129,577.74378 c 0,-2.76 2.24,-5 5,-5 2.76,0 5,2.24 5,5 0,2.76 -2.24,5 -5,5 -2.76,0 -5,-2.24 -5,-5 z"
       is_visible="true"
       id="path-effect4315"
       effect="skeletal" /><inkscape:path-effect
       fuse_tolerance="0"
       vertical_pattern="false"
       prop_units="false"
       tang_offset="0"
       normal_offset="0"
       spacing="0"
       scale_y_rel="false"
       prop_scale="1"
       copytype="single_stretched"
       pattern="m 734.50686,589.25783 c 0,-2.76 2.24,-5 5,-5 2.76,0 5,2.24 5,5 0,2.76 -2.24,5 -5,5 -2.76,0 -5,-2.24 -5,-5 z"
       is_visible="true"
       id="path-effect4313"
       effect="skeletal" /><inkscape:path-effect
       fuse_tolerance="0"
       vertical_pattern="false"
       prop_units="false"
       tang_offset="0"
       normal_offset="0"
       spacing="0"
       scale_y_rel="false"
       prop_scale="1"
       copytype="single_stretched"
       pattern="m 430.19587,577.74378 c 0,-2.76 2.24,-5 5,-5 2.76,0 5,2.24 5,5 0,2.76 -2.24,5 -5,5 -2.76,0 -5,-2.24 -5,-5 z"
       is_visible="true"
       id="path-effect4311"
       effect="skeletal" /><inkscape:path-effect
       fuse_tolerance="0"
       vertical_pattern="false"
       prop_units="false"
       tang_offset="0"
       normal_offset="0"
       spacing="0"
       scale_y_rel="false"
       prop_scale="1"
       copytype="single_stretched"
       pattern="m -37.384185,79.528392 c 0,-2.76 2.24,-5 5,-5 2.76,0 5,2.24 5,5 0,2.76 -2.24,5 -5,5 -2.76,0 -5,-2.24 -5,-5 z"
       is_visible="true"
       id="path-effect6275"
       effect="skeletal" /><inkscape:path-effect
       fuse_tolerance="0"
       vertical_pattern="false"
       prop_units="false"
       tang_offset="0"
       normal_offset="0"
       spacing="0"
       scale_y_rel="false"
       prop_scale="1"
       copytype="single_stretched"
       pattern="m 253.44071,91.752234 c 0,-2.76 2.24,-5 5,-5 2.76,0 5,2.24 5,5 0,2.76 -2.24,5 -5,5 -2.76,0 -5,-2.24 -5,-5 z"
       is_visible="true"
       id="path-effect6273"
       effect="skeletal" /><inkscape:path-effect
       fuse_tolerance="0"
       vertical_pattern="false"
       prop_units="false"
       tang_offset="0"
       normal_offset="0"
       spacing="0"
       scale_y_rel="false"
       prop_scale="1"
       copytype="single_stretched"
       pattern="m 55.363948,79.528392 c 0,-2.76 2.24,-5 5,-5 2.76,0 5,2.24 5,5 0,2.76 -2.24,5 -5,5 -2.76,0 -5,-2.24 -5,-5 z"
       is_visible="true"
       id="path-effect6271"
       effect="skeletal" /><inkscape:path-effect
       effect="skeletal"
       id="path-effect6244"
       is_visible="true"
       pattern="m -33.12542,5 c 0,-2.76 2.24,-5 5,-5 2.76,0 5,2.24 5,5 0,2.76 -2.24,5 -5,5 -2.76,0 -5,-2.24 -5,-5 z"
       copytype="single_stretched"
       prop_scale="1"
       scale_y_rel="false"
       spacing="0"
       normal_offset="0"
       tang_offset="0"
       prop_units="false"
       vertical_pattern="false"
       fuse_tolerance="0" /><inkscape:path-effect
       effect="skeletal"
       id="path-effect6220"
       is_visible="true"
       pattern="M 0,5 C 0,2.24 2.24,0 5,0 7.76,0 10,2.24 10,5 10,7.76 7.76,10 5,10 2.24,10 0,7.76 0,5 Z"
       copytype="single_stretched"
       prop_scale="1"
       scale_y_rel="false"
       spacing="0"
       normal_offset="0"
       tang_offset="0"
       prop_units="false"
       vertical_pattern="false"
       fuse_tolerance="0" /><inkscape:path-effect
       effect="skeletal"
       id="path-effect6198"
       is_visible="true"
       pattern="m 12.325267,243.94188 c 0,-2.76 2.24,-5 5,-5 2.76,0 5,2.24 5,5 0,2.76 -2.24,5 -5,5 -2.76,0 -5,-2.24 -5,-5 z"
       copytype="single_stretched"
       prop_scale="1.5"
       scale_y_rel="false"
       spacing="0"
       normal_offset="0"
       tang_offset="0"
       prop_units="false"
       vertical_pattern="false"
       fuse_tolerance="0" /><inkscape:path-effect
       effect="powerstroke"
       id="path-effect6132"
       is_visible="true"
       offset_points="0,0.5"
       sort_points="true"
       interpolator_type="CubicBezierJohan"
       interpolator_beta="0.2"
       start_linecap_type="zerowidth"
       linejoin_type="round"
       miter_limit="4"
       end_linecap_type="zerowidth"
       cusp_linecap_type="round" /><inkscape:path-effect
       effect="skeletal"
       id="path-effect6128"
       is_visible="true"
       pattern="M 0,0 1,0"
       copytype="single_stretched"
       prop_scale="1"
       scale_y_rel="false"
       spacing="0"
       normal_offset="0"
       tang_offset="0"
       prop_units="false"
       vertical_pattern="false"
       fuse_tolerance="0" /><inkscape:path-effect
       effect="powerstroke"
       id="path-effect4647"
       is_visible="true"
       offset_points="0,0.5"
       sort_points="true"
       interpolator_type="CubicBezierJohan"
       interpolator_beta="0.2"
       start_linecap_type="zerowidth"
       linejoin_type="round"
       miter_limit="4"
       end_linecap_type="zerowidth"
       cusp_linecap_type="round" /><inkscape:path-effect
       effect="skeletal"
       id="path-effect4643"
       is_visible="true"
       pattern="M 0,0 1,0"
       copytype="single_stretched"
       prop_scale="1"
       scale_y_rel="false"
       spacing="0"
       normal_offset="0"
       tang_offset="0"
       prop_units="false"
       vertical_pattern="false"
       fuse_tolerance="0" /><inkscape:path-effect
       effect="vonkoch"
       id="path-effect4641"
       is_visible="true"
       ref_path="m 264.37589,295.03627 112.60466,0"
       generator="m 264.37589,490.36776 37.53488,0 m 37.53489,0 37.53489,0"
       similar_only="false"
       nbgenerations="1"
       drawall="true"
       maxComplexity="1000" /><inkscape:path-effect
       effect="spiro"
       id="path-effect4639"
       is_visible="true" /><inkscape:path-effect
       effect="sketch"
       id="path-effect4637"
       is_visible="true"
       nbiter_approxstrokes="5"
       strokelength="100"
       strokelength_rdm="0.3;1"
       strokeoverlap="0.3"
       strokeoverlap_rdm="0.3;1"
       ends_tolerance="0.1;1"
       parallel_offset="5;1"
       tremble_size="5;1"
       tremble_frequency="1"
       nbtangents="5"
       tgt_places_rdmness="1;1"
       tgtscale="10"
       tgtlength="100"
       tgtlength_rdm="0.3;1" /><inkscape:path-effect
       effect="knot"
       id="path-effect4635"
       is_visible="true"
       interruption_width="3"
       prop_to_stroke_width="true"
       add_stroke_width="true"
       add_other_stroke_width="true"
       switcher_size="15"
       crossing_points_vector="" /><inkscape:path-effect
       effect="gears"
       id="path-effect4633"
       is_visible="true"
       teeth="10"
       phi="5" /><inkscape:path-effect
       effect="powerstroke"
       id="path-effect4631"
       is_visible="true"
       offset_points="0,30 | 3,30 | 6,30"
       sort_points="true"
       interpolator_type=""
       interpolator_beta="0.2"
       start_linecap_type="round"
       linejoin_type="round"
       miter_limit="4"
       end_linecap_type="round" /><marker
       inkscape:stockid="RazorWire"
       id="RazorWire"
       refX="0"
       refY="0"
       orient="auto"
       style="overflow:visible"
       inkscape:isstock="true"><path
         id="path4477"
         transform="scale(0.8,0.8)"
         style="fill:#000000;fill-opacity:1;fill-rule:evenodd;stroke:#000000;stroke-width:0.1pt;stroke-opacity:1"
         d="M 0.022727273,-0.74009011 L 0.022727273,0.69740989 L -7.7585227,3.0099099 L 10.678977,3.0099099 L 3.4914773,0.69740989 L 3.4914773,-0.74009011 L 10.741477,-2.8963401 L -7.7272727,-2.8963401 L 0.022727273,-0.74009011 z " /></marker><marker
       inkscape:stockid="Scissors"
       orient="auto"
       refY="0.0"
       refX="0.0"
       id="Scissors"
       style="overflow:visible"
       inkscape:isstock="true"><path
         id="schere"
         d="M 9.0898857,-3.6061018 C 8.1198849,-4.7769976 6.3697607,-4.7358294 5.0623558,-4.2327734 L -3.1500488,-1.1548705 C -5.5383421,-2.4615840 -7.8983361,-2.0874077 -7.8983361,-2.7236578 C -7.8983361,-3.2209742 -7.4416699,-3.1119800 -7.5100293,-4.4068519 C -7.5756648,-5.6501286 -8.8736064,-6.5699315 -10.100428,-6.4884954 C -11.327699,-6.4958500 -12.599867,-5.5553341 -12.610769,-4.2584343 C -12.702194,-2.9520479 -11.603560,-1.7387447 -10.304005,-1.6532027 C -8.7816644,-1.4265411 -6.0857470,-2.3487593 -4.8210600,-0.082342643 C -5.7633447,1.6559151 -7.4350844,1.6607341 -8.9465707,1.5737277 C -10.201445,1.5014928 -11.708664,1.8611256 -12.307219,3.0945882 C -12.885586,4.2766744 -12.318421,5.9591904 -10.990470,6.3210002 C -9.6502788,6.8128279 -7.8098011,6.1912892 -7.4910978,4.6502760 C -7.2454393,3.4624530 -8.0864637,2.9043186 -7.7636052,2.4731223 C -7.5199917,2.1477623 -5.9728246,2.3362771 -3.2164999,1.0982979 L 5.6763468,4.2330688 C 6.8000164,4.5467672 8.1730685,4.5362646 9.1684433,3.4313614 L -0.051640930,-0.053722219 L 9.0898857,-3.6061018 z M -9.2179159,-5.5066058 C -7.9233569,-4.7838060 -8.0290767,-2.8230356 -9.3743431,-2.4433169 C -10.590861,-2.0196559 -12.145370,-3.2022863 -11.757521,-4.5207817 C -11.530373,-5.6026336 -10.104134,-6.0014137 -9.2179159,-5.5066058 z M -9.1616516,2.5107591 C -7.8108215,3.0096239 -8.0402087,5.2951947 -9.4138723,5.6023681 C -10.324932,5.9187072 -11.627422,5.4635705 -11.719569,4.3902287 C -11.897178,3.0851737 -10.363484,1.9060805 -9.1616516,2.5107591 z "
         style="fill:#000000;stroke:#000000;stroke-opacity:1;fill-opacity:1" /></marker><marker
       inkscape:stockid="Arrow1Lend"
       orient="auto"
       refY="0.0"
       refX="0.0"
       id="Arrow1Lend"
       style="overflow:visible;"
       inkscape:isstock="true"><path
         id="path4248"
         d="M 0.0,0.0 L 5.0,-5.0 L -12.5,0.0 L 5.0,5.0 L 0.0,0.0 z "
         style="fill-rule:evenodd;stroke:#000000;stroke-width:1pt;stroke-opacity:1;fill:#000000;fill-opacity:1"
         transform="scale(0.8) rotate(180) translate(12.5,0)" /></marker><marker
       inkscape:stockid="DotL"
       orient="auto"
       refY="0.0"
       refX="0.0"
       id="DotL"
       style="overflow:visible"
       inkscape:isstock="true"><path
         id="path4306"
         d="M -2.5,-1.0 C -2.5,1.7600000 -4.7400000,4.0 -7.5,4.0 C -10.260000,4.0 -12.5,1.7600000 -12.5,-1.0 C -12.5,-3.7600000 -10.260000,-6.0 -7.5,-6.0 C -4.7400000,-6.0 -2.5,-3.7600000 -2.5,-1.0 z "
         style="fill-rule:evenodd;stroke:#000000;stroke-width:1pt;stroke-opacity:1;fill:#000000;fill-opacity:1"
         transform="scale(0.8) translate(7.4, 1)" /></marker><clipPath
       clipPathUnits="userSpaceOnUse"
       id="clipPath16"><path
         d="m 0,369.455 745,0 L 745,0 0,0 0,369.455 Z"
         id="path18"
         inkscape:connector-curvature="0" /></clipPath><clipPath
       clipPathUnits="userSpaceOnUse"
       id="clipPath28"><path
         d="m 0,369.455 745,0 L 745,0 0,0 0,369.455 Z"
         id="path30"
         inkscape:connector-curvature="0" /></clipPath><clipPath
       clipPathUnits="userSpaceOnUse"
       id="clipPath40"><path
         d="m 0,369.455 745,0 L 745,0 0,0 0,369.455 Z"
         id="path42"
         inkscape:connector-curvature="0" /></clipPath><clipPath
       clipPathUnits="userSpaceOnUse"
       id="clipPath56"><path
         d="m 0,369.455 745,0 L 745,0 0,0 0,369.455 Z"
         id="path58"
         inkscape:connector-curvature="0" /></clipPath><clipPath
       clipPathUnits="userSpaceOnUse"
       id="clipPath76"><path
         d="m 0,369.455 745,0 L 745,0 0,0 0,369.455 Z"
         id="path78"
         inkscape:connector-curvature="0" /></clipPath><clipPath
       clipPathUnits="userSpaceOnUse"
       id="clipPath96"><path
         d="m 0,369.455 745,0 L 745,0 0,0 0,369.455 Z"
         id="path98"
         inkscape:connector-curvature="0" /></clipPath><inkscape:path-effect
       effect="skeletal"
       id="path-effect6198-4"
       is_visible="true"
       pattern="m 10.052329,243.65554 c 0,-2.76 2.24,-5 5,-5 2.76,0 5,2.24 5,5 0,2.76 -2.24,5 -5,5 -2.76,0 -5,-2.24 -5,-5 z"
       copytype="single_stretched"
       prop_scale="1.5"
       scale_y_rel="false"
       spacing="0"
       normal_offset="0"
       tang_offset="0"
       prop_units="false"
       vertical_pattern="false"
       fuse_tolerance="0" /><inkscape:path-effect
       effect="skeletal"
       id="path-effect6220-0"
       is_visible="true"
       pattern="m 271.18557,16.514048 c 0,-2.76 2.24,-5 5,-5 2.76,0 5,2.24 5,5 0,2.76 -2.24,5 -5,5 -2.76,0 -5,-2.24 -5,-5 z"
       copytype="single_stretched"
       prop_scale="1"
       scale_y_rel="false"
       spacing="0"
       normal_offset="0"
       tang_offset="0"
       prop_units="false"
       vertical_pattern="false"
       fuse_tolerance="0" /></defs><sodipodi:namedview
     pagecolor="#ffffff"
     bordercolor="#666666"
     borderopacity="1"
     objecttolerance="10"
     gridtolerance="10"
     guidetolerance="10"
     inkscape:pageopacity="0"
     inkscape:pageshadow="2"
     inkscape:window-width="1920"
     inkscape:window-height="1017"
     id="namedview4"
     showgrid="false"
     inkscape:zoom="0.70442953"
     inkscape:cx="-68.183051"
     inkscape:cy="460.47815"
     inkscape:window-x="-8"
     inkscape:window-y="-8"
     inkscape:window-maximized="1"
     inkscape:current-layer="g6259"
     showguides="false" /><g
     id="g10"
     inkscape:groupmode="layer"
     inkscape:label="text"
     transform="matrix(1.25,0,0,-1.25,0,999.99999)"
     style="display:inline"><g
       id="g36"
       transform="translate(61.740244,220.32012)"><g
         id="g38"
         clip-path="url(#clipPath40)"
         transform="translate(-2.2713415,45.426829)"><text
           transform="scale(1,-1)"
           style="font-variant:normal;font-weight:600;font-stretch:normal;font-size:208px;line-height:100%;font-family:'Futura PT Heavy';-inkscape-font-specification:FuturaPT-Heavy;writing-mode:lr-tb;fill:#007e80;fill-opacity:1;fill-rule:nonzero;stroke:none"
           id="text44"
           sodipodi:linespacing="100%"
           x="58.367573"
           y="-198.88991"><tspan
             sodipodi:role="line"
             id="tspan50"
             style="font-style:normal;font-variant:normal;font-weight:normal;font-stretch:normal;font-size:195.19999695px;line-height:100%;font-family:'Passion One';-inkscape-font-specification:'Passion One, Normal';text-align:start;letter-spacing:-0.024px;writing-mode:lr-tb;text-anchor:start"
             x="58.367573"
             y="-198.88991">w  mngr</tspan></text>
</g></g></g><g
     inkscape:groupmode="layer"
     id="layer2"
     inkscape:label="heart"
     style="display:inline"><g
       style="display:inline"
       id="g12"
       transform="matrix(1.25,0,0,-1.25,8.840032,751.64337)"><g
         id="g14"
         clip-path="url(#clipPath16)"><g
           id="g20"
           transform="translate(421.4371,220.7999)"><path
             d="M 0,0 -107.125,-107.125 0,-214.251 107.126,-107.125 0,0 Z m -16.924,16.924 c -29.459,29.459 -77.666,29.459 -107.125,0 l 0,0 c -29.46,-29.46 -29.46,-77.666 0,-107.125 l 16.924,-16.924 L 0,0 -16.924,16.924 Z M 107.126,-107.125 0,0 16.924,16.924 c 29.459,29.459 77.666,29.459 107.125,0 l 0,0 c 29.46,-29.46 29.46,-77.666 0,-107.125 l -16.923,-16.924 z"
             style="fill:#00b9bd;fill-opacity:1;fill-rule:nonzero;stroke:none"
             id="path22"
             inkscape:connector-curvature="0" /></g></g></g><g
       style="display:inline"
       id="g24"
       transform="matrix(1.25,0,0,-1.25,8.840032,751.64337)"><g
         id="g26"
         clip-path="url(#clipPath28)"><g
           id="g32"
           transform="translate(421.1548,191.767)"><path
             d="M 0,0 -84.609,-84.609 0,-169.218 84.609,-84.609 0,0 Z m -13.367,13.367 c -23.267,23.267 -61.341,23.267 -84.609,0 l 0,0 c -23.267,-23.268 -23.267,-61.342 0,-84.609 L -84.609,-84.609 0,0 -13.367,13.367 Z M 84.609,-84.609 0,0 13.367,13.367 c 23.267,23.267 61.341,23.267 84.609,0 l 0,0 c 23.267,-23.268 23.267,-61.342 0,-84.609 L 84.609,-84.609 Z"
             style="fill:#004853;fill-opacity:1;fill-rule:nonzero;stroke:none"
             id="path34"
             inkscape:connector-curvature="0" /></g></g></g></g><g
     inkscape:groupmode="layer"
     id="layer1"
     inkscape:label="8"
     style="display:inline"><path
       style="fill:#00b9bd;fill-opacity:1;fill-rule:evenodd;stroke:none;stroke-width:20;stroke-linecap:butt;stroke-linejoin:miter;stroke-miterlimit:1;stroke-dasharray:none;stroke-opacity:1"
       d="m 311.33825,153.13012 c 0.99511,2.0641 -9.31239,5.99016 -22.60552,18.6179 -4.43436,4.22596 -9.42889,9.79905 -12.69692,16.44111 -2.36989,4.75678 -3.98974,10.33657 -4.25846,16.26652 -0.28166,5.46494 0.57981,11.24187 2.31025,17.2794 1.7964,6.22492 4.51971,12.41008 7.9137,18.85712 0,0 10e-6,1e-5 10e-6,1e-5 3.55629,6.73094 7.7141,13.34727 12.3931,20.22886 9.9825,14.6759 20.37273,27.69469 32.49458,43.51476 2.1413,2.78981 4.30459,5.62084 6.46252,8.47659 9.59264,12.69464 18.41411,25.01057 26.26851,37.97795 4.8052,7.93416 9.06818,15.89419 12.63956,24.06635 3.55254,8.11341 6.29235,16.27871 8.00776,24.54175 1.76099,8.46818 2.28735,16.81922 1.55511,24.81297 0,0 0,10e-6 0,10e-6 -0.8471,9.04207 -3.34886,17.28314 -6.74211,24.36726 -4.61796,9.59028 -10.77878,17.18679 -16.39637,22.81467 -15.54679,15.58179 -27.80362,19.43662 -28.18127,18.88902 -1.32373,-1.91941 9.30178,-8.27055 22.04523,-24.37035 4.54474,-5.74654 9.47931,-13.10014 12.78332,-21.60162 2.44708,-6.25548 4.1087,-13.36343 4.3973,-20.92614 0,0 0,-10e-6 0,-10e-6 0.27387,-6.71822 -0.54,-13.78005 -2.33921,-21.07783 -1.76534,-7.15099 -4.47168,-14.31803 -7.91374,-21.66664 -3.47357,-7.40111 -7.61421,-14.70699 -12.30258,-22.17982 -7.68708,-12.25429 -16.29757,-24.02875 -25.79473,-36.60175 -2.12735,-2.81634 -4.2771,-5.64429 -6.39425,-8.43038 -11.86042,-15.58134 -22.52562,-29.41864 -32.42943,-44.76581 -4.7078,-7.29223 -8.93657,-14.53495 -12.55405,-22.00969 0,0 -1e-5,-1e-5 -1e-5,-1e-5 -3.47018,-7.14564 -6.23615,-14.34698 -8.0148,-21.74054 -1.74933,-7.21812 -2.33877,-14.43709 -1.5931,-21.39763 0.85471,-7.65497 3.42452,-14.5234 6.86993,-20.21014 4.79082,-7.82765 11.03081,-13.5538 16.46972,-17.55532 15.95114,-11.76444 27.37218,-13.10347 27.60595,-12.61857 z"
       id="path6196"
       inkscape:path-effect="#path-effect6198"
       inkscape:original-d="M 311.33825,153.13012 C 146.70878,232.49871 495.17495,376.7153 330.5027,490.28237"
       inkscape:connector-curvature="0"
       sodipodi:nodetypes="cc" /><path
       style="fill:#00b9bd;fill-opacity:1;fill-rule:evenodd;stroke:none;stroke-width:20;stroke-linecap:butt;stroke-linejoin:miter;stroke-miterlimit:1;stroke-dasharray:none;stroke-opacity:1"
       d="m 328.84741,152.84377 c 0.29189,-0.60544 12.14415,1.00933 28.5168,13.42077 6.12651,4.64695 12.93499,11.12929 18.60465,19.74899 4.31386,6.58678 7.90695,14.39766 10.13266,23.22703 0,0 0,1e-5 0,1e-5 1.99578,7.95473 2.88609,16.46641 2.66344,25.35931 -0.21402,8.69708 -1.4029,17.52853 -3.40067,26.50985 -2.00071,9.01689 -4.72926,17.99966 -8.04275,27.0673 -4.30272,11.77052 -9.41787,23.39269 -15.189,35.15854 -3.15409,6.43036 -6.41313,12.7188 -9.67256,18.82046 -9.1106,17.07361 -20.2367,36.18299 -28.45619,50.70304 -4.57929,8.09157 -8.68661,15.47603 -12.57608,22.92036 0,0 0,1e-5 0,1e-5 -3.81891,7.3159 -7.07655,13.97063 -9.87691,20.6219 -2.6883,6.4144 -4.72145,12.10352 -6.02262,17.75763 -1.21371,5.4166 -1.73359,10.02707 -1.23466,14.32175 0.50345,4.553 2.12582,8.3221 4.18754,11.10506 1.44966,1.98614 3.17011,3.61655 4.65869,4.86615 4.07542,3.41975 6.86697,4.63482 6.54321,5.54409 -0.18485,0.51915 -3.4644,0.78079 -8.89895,-1.80996 -2.02592,-0.96638 -4.42696,-2.43113 -6.73155,-4.60384 -3.26659,-3.12391 -6.25084,-7.74395 -7.62853,-13.69034 -1.23524,-5.38795 -1.31779,-11.22752 -0.41709,-17.46029 0.90751,-6.51335 2.64286,-13.06711 5.04588,-20.02632 2.48997,-7.24442 5.51303,-14.48867 9.05982,-22.17923 10e-6,0 10e-6,-1e-5 10e-6,-1e-5 3.60277,-7.81857 7.52268,-15.62554 11.84619,-23.91327 23.12252,-44.33549 3.16274,-4.92834 27.31413,-51.12279 3.15294,-6.03723 6.32144,-12.21673 9.38914,-18.46487 5.62179,-11.4502 10.61863,-22.5498 14.8693,-33.69523 3.26962,-8.56963 6.00217,-16.89085 8.06664,-25.15792 2.0514,-8.23459 3.41065,-16.13844 3.89802,-23.83954 0.49364,-7.85371 0.11002,-15.24698 -1.23125,-22.12952 0,0 0,-1e-5 0,-1e-5 -1.47126,-7.60779 -4.07515,-14.48478 -7.33811,-20.4165 -4.25674,-7.77926 -9.7833,-14.16743 -14.82493,-19.06455 -13.62216,-13.23437 -24.23499,-17.5438 -23.25427,-19.57806 z"
       id="path6196-3"
       inkscape:path-effect="#path-effect6198-4"
       inkscape:original-d="M 328.84741,152.84377 C 493.47688,232.21237 215.99013,456.6357 309.68296,489.99602"
       inkscape:connector-curvature="0"
       sodipodi:nodetypes="cc" /><path
       style="fill:#00b9bd;fill-opacity:1;fill-rule:evenodd;stroke:none;stroke-width:1px;stroke-linecap:butt;stroke-linejoin:miter;stroke-opacity:1"
       d="m 136.99029,122.69436 c 0.0182,-0.0353 0.0418,-0.0677 0.0709,-0.0972 0.0284,-0.0289 0.0619,-0.0551 0.10054,-0.0784 0.0771,-0.0467 0.17447,-0.0823 0.29165,-0.10692 0,0 0,0 0,0 l 0,0 c 0.23401,-0.0491 0.54634,-0.0543 0.93375,-0.0166 l 0,0 c 0.77121,0.0751 1.83376,0.32018 3.16189,0.7315 l 0,0 c 2.62575,0.81319 6.24743,2.26234 10.65325,4.33448 l 0,0 c 8.44173,3.96944 19.75686,10.21146 31.83683,18.6007 3.7609,2.60726 7.61958,5.43347 11.46621,8.47882 8.35792,6.61691 15.46205,13.32355 21.43718,20.18397 0,0 0,0 0,0 5.17301,5.93463 9.00644,11.52008 11.77429,16.82377 5.43425,10.35995 5.26858,17.46721 4.09577,17.74086 -1.20561,0.28131 -3.65817,-5.86039 -9.84162,-14.15005 -3.34731,-4.46659 -7.29175,-8.98002 -12.60741,-14.26906 0,0 0,-1e-5 0,-1e-5 -6.14231,-6.10722 -12.96235,-12.07154 -21.06787,-18.48195 -3.69341,-2.921 -7.39417,-5.73023 -10.96117,-8.39022 -11.38589,-8.47641 -21.95951,-15.6891 -29.38094,-20.97234 l 0,0 c -3.88436,-2.76488 -7.02114,-5.07715 -9.08515,-6.80598 l 0,0 c -1.05182,-0.881 -1.84122,-1.62364 -2.33112,-2.21165 l 0,0 c -0.24677,-0.2962 -0.41863,-0.55472 -0.51139,-0.77324 l 0,0 c 0,0 0,0 0,0 -0.0466,-0.1097 -0.0734,-0.20955 -0.0797,-0.29921 -0.003,-0.0449 -0.001,-0.0873 0.006,-0.12717 0.007,-0.0407 0.02,-0.0787 0.0382,-0.11401 z"
       id="path6218"
       inkscape:path-effect="#path-effect6220"
       inkscape:original-d="m 136.99028,122.69436 c 0,0 85.8851,44.00724 95.82222,86.59489"
       inkscape:connector-curvature="0" /><path
       style="fill:#00b9bd;fill-opacity:1;fill-rule:evenodd;stroke:none;stroke-width:1px;stroke-linecap:butt;stroke-linejoin:miter;stroke-opacity:1"
       d="m 504.6195,134.20841 c 0.59581,1.07241 -3.96731,4.89398 -11.99312,10.34813 0,0 -10e-6,0 -10e-6,0 -7.42565,5.28623 -17.9797,12.48667 -29.35101,20.95547 -3.567,2.65999 -7.26775,5.46921 -10.96116,8.39021 -8.10552,6.41041 -14.92557,12.37473 -21.06788,18.48196 0,0 0,1e-5 0,1e-5 -5.31566,5.28904 -9.2601,9.80247 -12.60742,14.26906 -6.18344,8.28966 -8.636,14.43136 -9.84161,14.15005 -1.17281,-0.27365 -1.33848,-7.38091 4.09577,-17.74086 2.76785,-5.30369 6.60128,-10.88914 11.77429,-16.82377 0,0 0,0 0,0 5.97513,-6.86042 13.07927,-13.56707 21.43719,-20.18398 3.84663,-3.04535 7.7053,-5.87156 11.4662,-8.47881 12.09827,-8.39959 23.42549,-14.64837 31.86676,-18.61757 0,0 0,-1e-5 0,-1e-5 8.92795,-3.96466 14.58603,-5.82259 15.182,-4.74989 z"
       id="path6218-1"
       inkscape:path-effect="#path-effect6220-0"
       inkscape:original-d="m 504.61951,134.20841 c 0,0 -85.8851,44.00724 -95.82222,86.59489"
       inkscape:connector-curvature="0" /><path
       style="fill:#00b9bd;fill-opacity:1;fill-rule:evenodd;stroke:none;stroke-width:1px;stroke-linecap:butt;stroke-linejoin:miter;stroke-opacity:1"
       d="m 321.04436,129.84865 c -0.0266,-0.0175 -0.0507,-0.0379 -0.0729,-0.0619 -0.0213,-0.023 -0.0405,-0.0489 -0.0578,-0.0778 -0.0343,-0.0573 -0.0608,-0.12636 -0.0797,-0.20672 l 0,0 0,0 c -0.0374,-0.1581 -0.0459,-0.36114 -0.0268,-0.60668 l 0,0 c 0.0369,-0.47621 0.1762,-1.11847 0.40056,-1.91242 l 0,0 c 0.42641,-1.50931 1.12669,-3.47229 1.9941,-6.00708 l 0,0 c 0,0 0,0 0,0 1.24553,-3.68208 3.45888,-9.89208 3.75101,-15.57384 l 0,0 c 0.0875,-2.1775 0.0123,-4.42257 -0.71609,-6.150828 l 0,0 c -0.54461,-1.422562 -1.62947,-2.777341 -2.97595,-3.552586 l 0,0 c -1.85965,-1.260368 -4.58332,-1.640813 -7.81053,-1.904077 -4.11708,-0.228382 -8.42673,0.280661 -13.11332,1.116907 -0.85928,0.153326 -1.72053,0.315614 -2.57956,0.482402 -5.78804,1.181617 -10.89416,2.4343 -15.5401,4.410583 -3.12063,1.403359 -5.67118,2.684069 -7.30266,4.523109 -1.07396,1.1724 -1.82879,2.51569 -1.91645,3.7397 -0.23152,1.35689 0.24779,3.04793 0.86896,4.64541 1.68494,4.21664 5.47542,8.30396 7.64858,10.73624 3.46592,3.38842 5.27749,5.69163 4.81845,6.39552 0,0 0,0 0,0 -0.003,0.004 -0.003,0.004 -0.003,0.004 0,0 0,0 -0.003,0.004 0,0 0,0 0,0 -0.47725,0.69245 -3.17996,-0.30057 -7.67534,-2.71698 -3.0411,-1.85238 -7.92423,-5.33604 -11.39345,-10.98349 -1.33495,-2.15844 -2.41331,-4.9735 -2.50412,-8.33335 0.0506,-3.35956 1.22927,-6.63317 3.39761,-9.260281 2.83419,-3.394026 6.41506,-5.77068 10.13998,-7.454583 5.50848,-2.602809 11.34774,-4.259957 17.47251,-5.501296 0.91716,-0.194474 1.84946,-0.379724 2.795,-0.551477 5.14871,-0.935248 10.32037,-1.400471 15.54372,-1.001726 4.14321,0.231763 8.46661,1.379028 12.31602,3.939692 l 0,0 c 3.11555,2.211073 5.18291,5.319336 6.13225,8.645061 l 0,0 c 0.94369,3.58947 0.80136,6.95305 0.26041,9.75825 l 0,0 c -1.36711,7.369 -4.78909,13.30773 -7.14437,16.80903 l 0,0 0,0 0,0 c -1.55033,2.32862 -2.98463,4.07005 -4.10443,5.18187 l 0,0 c -0.60561,0.60135 -1.12664,1.02711 -1.5485,1.27538 l 0,0 c -0.21712,0.12776 -0.40691,0.20836 -0.56844,0.24103 l 0,0 0,0 c -0.0817,0.0164 -0.15587,0.0206 -0.22255,0.0125 -0.0335,-0.004 -0.0651,-0.0113 -0.0948,-0.0216 -0.0309,-0.0108 -0.0593,-0.0247 -0.0859,-0.0421 z"
       id="path6242"
       inkscape:path-effect="#path-effect6244"
       inkscape:original-d="m 321.04435,129.84866 c 0,0 33.66108,-50.728675 -22.28269,-39.350281 -55.94377,11.378391 -10.43019,39.350281 -10.43019,39.350281"
       inkscape:connector-curvature="0" /></g><g
     inkscape:label="8 copy"
     id="g6259"
     inkscape:groupmode="layer"
     style="display:none"><path
       sodipodi:nodetypes="cc"
       inkscape:connector-curvature="0"
       inkscape:original-d="M 356.76508,256.76007 C 192.13561,336.12866 491.24586,376.75835 326.57361,490.32542"
       inkscape:path-effect="#path-effect6198"
       id="path6261"
       d="m 356.76508,256.76007 c 0.94093,1.95171 -8.91216,6.91059 -23.16269,18.12899 -4.62315,3.65366 -10.13333,8.30535 -14.45551,13.74443 -2.69149,3.42511 -5.18866,7.32123 -6.32283,11.41271 -0.90247,3.07587 -1.13497,6.49623 -0.54823,9.81873 0.53367,3.30306 1.92994,6.67766 3.81896,10.15692 2.05952,3.74536 4.72723,7.35539 7.79402,11.09706 6.85345,8.33891 14.43873,15.52317 23.13953,24.35928 2.34733,2.36848 4.73746,4.80723 7.11057,7.31109 6.14644,6.48508 11.90183,13.11878 16.98233,20.38515 3.46185,4.9546 6.49179,10.18194 8.86375,15.7466 2.38627,5.58899 3.94834,11.45041 4.5153,17.40207 0.59556,6.54847 -0.11349,12.90669 -1.77443,18.71646 0,0 -10e-6,1e-5 -10e-6,1e-5 -2.14113,7.38697 -5.61874,13.79022 -9.39239,19.11345 -5.65482,7.9943 -12.20753,14.3229 -17.88065,19.08416 -16.28102,13.69061 -28.1896,18.08815 -28.87919,17.08824 -1.2993,-1.88399 8.78171,-9.04725 22.45589,-23.84447 4.70865,-5.10556 10.16276,-11.51606 14.43198,-18.75678 2.83202,-4.81944 5.36173,-10.25419 6.61513,-15.9629 -1e-5,0 0,-1e-5 0,-1e-5 0.9946,-4.43614 1.28946,-9.20089 0.64534,-13.9225 -0.56469,-4.33542 -1.94494,-8.74087 -3.93534,-13.12664 -2.00081,-4.40118 -4.65022,-8.68906 -7.73993,-12.99906 -4.55976,-6.36591 -9.89927,-12.36968 -15.80313,-18.59117 -2.27249,-2.39475 -4.60313,-4.79555 -6.90111,-7.16345 -8.43211,-8.63274 -16.36566,-16.51561 -23.66161,-25.88547 -3.32414,-4.25793 -6.34713,-8.7503 -8.81468,-13.64097 -2.33153,-4.57215 -3.99214,-9.53779 -4.63868,-14.7611 -0.63073,-5.4737 0.0977,-10.82247 1.86251,-15.60648 2.32782,-6.10794 5.95275,-11.0241 9.67367,-14.84687 5.87208,-6.08044 12.40798,-10.49614 17.84408,-13.67666 16.52759,-9.71278 27.65997,-11.8125 28.15735,-10.78082 z"
       style="fill:#00b9bd;fill-opacity:1;fill-rule:evenodd;stroke:none;stroke-width:20;stroke-linecap:butt;stroke-linejoin:miter;stroke-miterlimit:1;stroke-dasharray:none;stroke-opacity:1" /><path
       sodipodi:nodetypes="cc"
       inkscape:connector-curvature="0"
       inkscape:original-d="m 318.2005,212.46648 c 164.62947,79.3686 -102.21037,244.16922 -8.51754,277.52954"
       inkscape:path-effect="#path-effect6198-4"
       id="path6263"
       d="m 318.2005,212.46648 c 0.40277,-0.83544 12.09328,1.01218 28.6755,12.4233 6.0407,4.15347 12.93762,9.93408 18.92536,17.69413 4.34167,5.64318 8.20177,12.4629 10.76144,20.32192 0,0 1e-5,1e-5 1e-5,1e-5 2.18963,6.78205 3.36469,14.14233 3.38874,21.81759 0.0205,7.36697 -0.92944,14.8244 -2.69121,22.28825 -1.76504,7.50146 -4.25149,14.8886 -7.29002,22.22443 -3.47856,8.39276 -7.55848,16.60065 -12.11696,24.77912 -3.54897,6.3673 -7.2756,12.51527 -10.99399,18.40118 -8.51576,13.50486 -18.84954,28.37117 -26.50363,39.73326 -8.64367,12.88346 -15.19313,22.71395 -20.53181,33.81758 -2.36029,4.93335 -4.13838,9.32373 -5.18165,13.7149 -0.95483,4.15814 -1.29011,7.7799 -0.69798,11.04071 0.28643,1.70473 0.79261,3.2908 1.45706,4.70875 0.78337,1.69037 1.83727,3.21052 2.93437,4.50928 6.09348,7.30873 12.04826,8.08628 11.34723,10.05513 -0.0513,0.14401 -6.62474,1.70824 -15.72431,-5.42972 -1.72066,-1.36741 -3.47028,-3.12866 -4.98902,-5.34508 -1.27168,-1.86823 -2.3527,-4.03067 -3.11145,-6.44764 -1.39343,-4.57531 -1.68636,-9.63026 -0.93055,-14.86058 0.75253,-5.46305 2.33356,-10.87626 4.52481,-16.44154 4.82057,-12.31414 11.30008,-23.58347 19.41685,-36.71931 -9.9832,16.21749 34.48135,-55.05235 25.35728,-40.19985 3.5568,-5.80075 7.13312,-11.77848 10.52427,-17.84842 4.3627,-7.80897 8.25496,-15.477 11.57537,-23.21767 2.89571,-6.74566 5.28957,-13.34347 7.02062,-19.92781 1.71474,-6.54309 2.77532,-12.88208 2.99589,-19.03623 0.2319,-6.37596 -0.40116,-12.45377 -1.868,-18.04372 0,0 0,-1e-5 0,-1e-5 -1.67569,-6.47103 -4.49108,-12.37022 -7.75947,-17.44085 -4.50088,-7.00442 -10.16968,-12.8272 -15.18004,-17.33477 -13.92578,-12.51383 -24.31588,-17.20117 -23.33471,-19.23634 z"
       style="fill:#00b9bd;fill-opacity:1;fill-rule:evenodd;stroke:none;stroke-width:20;stroke-linecap:butt;stroke-linejoin:miter;stroke-miterlimit:1;stroke-dasharray:none;stroke-opacity:1" /></g><g
     inkscape:label="Small-Icon Heart"
     id="g4265"
     inkscape:groupmode="layer"
     style="display:none"><g
       transform="matrix(1.25,0,0,-1.25,256.77118,991.55171)"
       id="g4267"
       style="display:inline"><g
         clip-path="url(#clipPath16)"
         id="g4269"><g
           transform="translate(421.4371,220.7999)"
           id="g4271"><path
             inkscape:connector-curvature="0"
             id="path4273"
             style="fill:#00b9bd;fill-opacity:1;fill-rule:nonzero;stroke:none"
             d="M 0,0 -107.125,-107.125 0,-214.251 107.126,-107.125 0,0 Z m -16.924,16.924 c -29.459,29.459 -77.666,29.459 -107.125,0 l 0,0 c -29.46,-29.46 -29.46,-77.666 0,-107.125 l 16.924,-16.924 L 0,0 -16.924,16.924 Z M 107.126,-107.125 0,0 16.924,16.924 c 29.459,29.459 77.666,29.459 107.125,0 l 0,0 c 29.46,-29.46 29.46,-77.666 0,-107.125 l -16.923,-16.924 z" /></g></g></g><g
       transform="matrix(1.25,0,0,-1.25,256.77118,991.55171)"
       id="g4275"
       style="display:inline"><g
         clip-path="url(#clipPath28)"
         id="g4277"><g
           transform="translate(421.1548,191.767)"
           id="g4279"><path
             inkscape:connector-curvature="0"
             id="path4281"
             style="fill:#004853;fill-opacity:1;fill-rule:nonzero;stroke:none"
             d="M 0,0 -84.609,-84.609 0,-169.218 84.609,-84.609 0,0 Z m -13.367,13.367 c -23.267,23.267 -61.341,23.267 -84.609,0 l 0,0 c -23.267,-23.268 -23.267,-61.342 0,-84.609 L -84.609,-84.609 0,0 -13.367,13.367 Z M 84.609,-84.609 0,0 13.367,13.367 c 23.267,23.267 61.341,23.267 84.609,0 l 0,0 c 23.267,-23.268 23.267,-61.342 0,-84.609 L 84.609,-84.609 Z" /></g></g></g></g><g
     style="display:none"
     inkscape:label="Small-Icon 8"
     id="g4229"
     inkscape:groupmode="layer"><path
       sodipodi:nodetypes="cc"
       inkscape:connector-curvature="0"
       inkscape:original-d="m 779.92218,793.26689 c -73.10973,39.44877 81.63939,111.1291 8.51067,167.57563"
       inkscape:path-effect="#path-effect4319"
       id="path4231"
       d="m 779.92218,793.26689 c 0.85067,1.57653 -3.47876,4.22115 -8.54334,10.55606 -1.72006,2.16135 -3.58383,4.88203 -4.65027,7.86021 -0.80735,2.18654 -1.27927,4.67425 -1.24793,7.27804 0.007,2.42005 0.47552,4.99278 1.28476,7.76973 0.83219,2.82574 2.05803,5.6843 3.58489,8.75179 0,0 0,0 0,0 1.58094,3.15707 3.43026,6.30559 5.52607,9.64471 4.48874,7.14808 9.0056,13.3502 14.49403,21.33218 1.02096,1.47986 2.05185,2.98583 3.0805,4.51156 4.22427,6.26554 8.12077,12.43923 11.55899,18.9162 4.41354,8.22303 7.66962,16.53964 9.13802,25.19925 0.74332,4.46873 0.87981,8.86777 0.4268,13.07982 0,0 0,1e-5 0,1e-5 -0.5239,4.76553 -1.83687,9.08456 -3.59067,12.81166 -2.35117,4.95487 -5.40009,8.8137 -8.22838,11.64414 -7.58608,7.58673 -13.65403,9.08669 -14.3228,8.22027 -1.13048,-1.46458 3.18233,-5.32694 7.98211,-13.28104 1.75116,-2.9041 3.59847,-6.48883 4.72992,-10.4322 0.86075,-2.95663 1.37748,-6.24081 1.35619,-9.70064 0,0 0,-10e-6 0,-10e-6 -0.007,-3.08248 -0.45724,-6.32469 -1.3026,-9.72939 -1.63861,-6.73268 -4.80969,-13.3332 -9.00898,-20.75367 -3.32186,-5.80075 -7.04566,-11.44974 -11.18157,-17.58746 -0.98688,-1.46454 -2.02555,-2.99926 -3.00904,-4.45663 -5.22133,-7.71154 -9.99832,-14.78762 -14.33785,-22.54613 -2.09387,-3.74115 -3.96749,-7.48992 -5.55262,-11.34923 0,0 0,0 0,0 -1.54519,-3.74073 -2.74645,-7.54105 -3.48874,-11.42657 -0.74652,-3.85482 -0.90972,-7.71885 -0.44867,-11.45401 0.52737,-4.11181 1.88707,-7.78377 3.69404,-10.85205 2.46196,-4.10834 5.55796,-7.03713 8.30225,-9.03712 7.74749,-5.6525 13.29709,-5.81792 13.75489,-4.96948 z"
       style="fill:#00b9bd;fill-opacity:1;fill-rule:evenodd;stroke:none;stroke-width:20;stroke-linecap:butt;stroke-linejoin:miter;stroke-miterlimit:1;stroke-dasharray:none;stroke-opacity:1" /><path
       sodipodi:nodetypes="cc"
       inkscape:connector-curvature="0"
       inkscape:original-d="m 787.69776,793.12457 c 73.10972,39.44877 -50.1184,150.99446 -8.51068,167.57562"
       inkscape:path-effect="#path-effect4317"
       id="path4233"
       d="m 787.69776,793.12457 c 0.0282,-0.0522 12.6185,-1.33133 23.49249,15.37287 0,0 0,0 0,0 2.19961,3.45942 4.02912,7.53555 5.19856,12.13543 1.05607,4.17005 1.58812,8.61098 1.5786,13.23858 -0.0356,9.06386 -1.81425,18.20427 -4.82626,27.56631 -1.90225,5.98284 -4.19843,11.89957 -6.81177,17.86204 -1.4066,3.20925 -2.86433,6.33903 -4.32977,9.37092 -4.2224,8.75295 -9.06712,17.77938 -12.95993,25.11724 -4.40638,8.34331 -7.60103,14.28196 -10.48144,21.08799 -1.30361,3.09192 -2.30532,5.73215 -3.01442,8.35384 -0.66269,2.55099 -1.05709,4.57184 -1.03932,6.5026 0.008,1.99418 0.35671,3.63029 0.98801,4.96182 0,0 0,0 0,0 1.62137,3.74746 4.26218,4.58165 3.69457,6.00598 -0.16739,0.42004 -3.58964,1.79892 -8.22134,-2.35611 0,0 0,0 0,0 -1.79341,-1.68495 -3.44156,-4.17768 -4.25934,-7.3623 -0.74816,-2.88234 -0.96129,-6.01358 -0.67625,-9.29411 0.2681,-3.38916 0.92717,-6.82658 1.90095,-10.42601 2.0546,-7.64144 5.00836,-14.99817 8.77371,-23.46341 3.97794,-8.97886 7.31495,-15.75572 11.80692,-25.4935 1.36581,-2.96671 2.74319,-5.99403 4.07729,-9.0325 2.48742,-5.66518 4.70011,-11.08727 6.59471,-16.48912 2.95203,-8.52059 4.97475,-16.04232 5.56894,-23.41662 0.30922,-3.70763 0.27708,-7.14799 -0.15097,-10.3649 -0.46253,-3.52233 -1.35816,-6.72578 -2.55998,-9.55683 0,0 0,0 0,0 -2.53687,-6.2411 -7.18762,-11.26 -9.98546,-14.25365 -3.02719,-3.23903 -4.86511,-5.12768 -4.3585,-6.06656 z"
       style="fill:#00b9bd;fill-opacity:1;fill-rule:evenodd;stroke:none;stroke-width:20;stroke-linecap:butt;stroke-linejoin:miter;stroke-miterlimit:1;stroke-dasharray:none;stroke-opacity:1" /><path
       inkscape:connector-curvature="0"
       inkscape:original-d="m 702.4966,778.13933 c 0,0 38.14041,21.87303 42.55335,43.04048"
       inkscape:path-effect="#path-effect4315"
       id="path4235"
       d="m 702.49662,778.13934 c 1.34822,-1.94752 10.88435,2.2461 22.54452,9.69418 0,0 0,0 0,0 1.88237,1.3992 3.80456,2.94739 5.70486,4.64608 3.66681,3.27777 6.76858,6.68448 9.28502,10.14094 3.47727,4.67436 5.3785,9.11816 6.01836,12.75591 0.62179,3.53503 -0.0506,5.60556 -0.99943,5.80336 -1.00515,0.20955 -2.1854,-1.39791 -4.00009,-3.69307 -2.38323,-3.01423 -3.9198,-4.74384 -7.99278,-9.0464 -2.65073,-2.72521 -5.43053,-5.35573 -8.79322,-8.36505 -1.69502,-1.5169 -3.42013,-3.02485 -5.04521,-4.4468 0,0 0,0 0,0 -10.83403,-8.12149 -18.06902,-15.54342 -16.72203,-17.48915 z"
       style="fill:#00b9bd;fill-opacity:1;fill-rule:evenodd;stroke:none;stroke-width:1px;stroke-linecap:butt;stroke-linejoin:miter;stroke-opacity:1" /><path
       inkscape:connector-curvature="0"
       inkscape:original-d="m 865.75577,783.86219 c 0,0 -38.14041,21.87303 -42.55335,43.04047"
       inkscape:path-effect="#path-effect4313"
       id="path4237"
       d="m 865.75575,783.8622 c 1.34699,1.94573 -5.888,9.36766 -16.72203,17.48915 0,0 0,0 0,0 -1.62508,1.42194 -3.35019,2.9299 -5.04521,4.4468 -3.36269,3.00932 -6.14249,5.63984 -8.79323,8.36504 -4.07297,4.30257 -5.60954,6.03217 -7.99277,9.04641 -1.81469,2.29515 -2.99494,3.90261 -4.00009,3.69306 -0.94879,-0.1978 -1.62122,-2.26833 -0.99943,-5.80336 0.63986,-3.63775 2.54109,-8.08155 6.01836,-12.75591 2.51644,-3.45646 5.61821,-6.86317 9.28502,-10.14094 1.90031,-1.69868 3.8225,-3.24688 5.70486,-4.64607 0,0 0,0 0,0 11.66017,-7.44808 21.1963,-11.6417 22.54452,-9.69418 z"
       style="fill:#00b9bd;fill-opacity:1;fill-rule:evenodd;stroke:none;stroke-width:1px;stroke-linecap:butt;stroke-linejoin:miter;stroke-opacity:1" /><path
       inkscape:connector-curvature="0"
       inkscape:original-d="m 784.23252,781.69525 c 0,0 14.94843,-25.2138 -9.89544,-19.55836 -24.84387,5.65542 -4.6319,19.55836 -4.6319,19.55836"
       inkscape:path-effect="#path-effect4311"
       id="path4239"
       d="m 784.23253,781.69523 c -0.0559,-0.0324 -0.10625,-0.0702 -0.1541,-0.1152 0,0 0,0 0,0 -0.0455,-0.0428 -0.0875,-0.0913 -0.12602,-0.14533 0,0 0,0 0,0 -0.0758,-0.10633 -0.13874,-0.23457 -0.18868,-0.38309 l 0,0 0,0 c -0.0976,-0.28716 -0.15018,-0.65332 -0.16251,-1.08929 0,0 0,0 0,0 l 0,0 c -0.0232,-0.81976 0.0889,-1.88055 0.26937,-3.15989 l 0,0 0,0 c 0.25467,-1.85901 0.86412,-5.04638 0.73416,-7.46541 l 0,0 c -0.0747,-0.96028 -0.17217,-1.82827 -0.4768,-2.3043 l 0,0 c -0.20331,-0.28598 -0.43813,-0.53459 -0.57562,-0.47609 l 0,0 c -0.20369,-0.19638 -0.93505,-0.17383 -2.02732,-0.31455 -1.40836,-0.0768 -2.98552,0.16085 -4.82914,0.51694 -0.40926,0.0791 -0.82836,0.16322 -1.25011,0.24824 -4.49303,1.38644 -7.5093,1.53284 -8.75717,3.27834 -0.25497,0.20217 -0.50747,0.45258 -0.59374,0.63255 -0.18322,0.27709 -0.12439,0.86832 -0.0133,1.53978 0.31369,1.71589 1.62372,3.85423 2.36646,5.21688 1.22862,1.8934 1.75406,3.34027 1.26344,4.01202 0,0 0,0 0,0 0,0 0,0 0,0 0,0 0,0 0,0 0,0 0,10e-6 0,10e-6 0,0 0,0 0,0 0,0 0,0 0,0 0,0 0,0 0,0 0,0 0,0 0,0 0,0 0,0 0,0 0,0 0,0 0,0 0,0 0,0 0,0 0,0 0,0 0,0 0,0 0,0 0,0 0,0 -10e-6,0 -10e-6,0 0,0 0,1e-5 0,1e-5 0,0 0,0 0,0 0,0 0,0 0,0 0,0 0,0 0,0 -0.006,0.008 -0.006,0.008 -0.006,0.008 0,0 10e-6,10e-6 -0.006,0.008 0,0 0,0 0,0 0,0 0,0 0,0 0,0 0,10e-6 0,10e-6 0,0 0,0 0,0 0,0 0,0 0,0 0,0 0,0 0,0 0,0 0,0 0,0 0,0 0,0 0,0 0,0 -10e-6,0 -10e-6,0 0,0 0,0 0,0 0,0 0,10e-6 0,10e-6 0,0 0,0 0,0 0,0 0,0 0,0 0,0 0,0 0,0 0,0 0,0 0,0 0,0 0,0 0,0 0,0 0,0 0,0 0,0 0,0 0,0 -0.50928,0.66069 -1.98688,0.46368 -4.29481,-0.52639 -1.64699,-0.81317 -4.12557,-2.47423 -6.08417,-5.57853 -0.76895,-1.22145 -1.38518,-2.85375 -1.50675,-4.90907 -0.0258,-2.05203 0.54761,-4.09344 1.7695,-5.82628 3.63776,-4.66185 8.84308,-6.86431 13.64578,-7.59684 0.49621,-0.12397 1.00828,-0.24008 1.53531,-0.34493 2.36366,-0.47025 4.87466,-0.68247 7.49492,-0.45706 2.20205,0.10673 4.64,0.93125 6.91039,2.58748 l 0,0 c 1.90984,1.5934 3.03007,3.57674 3.47112,5.58293 l 0,0 c 0.44309,2.18764 0.31335,4.0809 -0.0402,5.59949 l 0,0 c -0.88093,3.98441 -2.71325,6.90438 -4.10006,8.62775 l 0,0 0,0 c -0.88729,1.12215 -1.72968,1.92602 -2.43981,2.40504 l 0,0 c 0,0 -10e-6,0 -10e-6,0 -0.38163,0.25747 -0.72677,0.42436 -1.02977,0.49868 l 0,0 0,0 c -0.15534,0.0376 -0.2988,0.0513 -0.43043,0.0405 0,0 0,0 0,0 -0.0666,-0.005 -0.13002,-0.0172 -0.19017,-0.0351 0,0 -1e-5,0 -1e-5,0 -0.0631,-0.0189 -0.12119,-0.0437 -0.17711,-0.0761 z"
       style="fill:#00b9bd;fill-opacity:1;fill-rule:evenodd;stroke:none;stroke-width:1px;stroke-linecap:butt;stroke-linejoin:miter;stroke-opacity:1" /></g><g
     style="display:none"
     inkscape:label="Small-Icon 8"
     id="g4291"
     inkscape:groupmode="layer"><path
       sodipodi:nodetypes="cc"
       inkscape:connector-curvature="0"
       inkscape:original-d="M 311.33825,153.13012 C 146.70878,232.49871 495.17495,376.7153 330.5027,490.28237"
       inkscape:path-effect="#path-effect6198"
       id="path4293"
       d="m 311.33825,153.13012 c 0.99511,2.0641 -9.31239,5.99016 -22.60552,18.6179 -4.43436,4.22596 -9.42889,9.79905 -12.69692,16.44111 -2.36989,4.75678 -3.98974,10.33657 -4.25846,16.26652 -0.28166,5.46494 0.57981,11.24187 2.31025,17.2794 1.7964,6.22492 4.51971,12.41008 7.9137,18.85712 0,0 10e-6,1e-5 10e-6,1e-5 3.55629,6.73094 7.7141,13.34727 12.3931,20.22886 9.9825,14.6759 20.37273,27.69469 32.49458,43.51476 2.1413,2.78981 4.30459,5.62084 6.46252,8.47659 9.59264,12.69464 18.41411,25.01057 26.26851,37.97795 4.8052,7.93416 9.06818,15.89419 12.63956,24.06635 3.55254,8.11341 6.29235,16.27871 8.00776,24.54175 1.76099,8.46818 2.28735,16.81922 1.55511,24.81297 0,0 0,10e-6 0,10e-6 -0.8471,9.04207 -3.34886,17.28314 -6.74211,24.36726 -4.61796,9.59028 -10.77878,17.18679 -16.39637,22.81467 -15.54679,15.58179 -27.80362,19.43662 -28.18127,18.88902 -1.32373,-1.91941 9.30178,-8.27055 22.04523,-24.37035 4.54474,-5.74654 9.47931,-13.10014 12.78332,-21.60162 2.44708,-6.25548 4.1087,-13.36343 4.3973,-20.92614 0,0 0,-10e-6 0,-10e-6 0.27387,-6.71822 -0.54,-13.78005 -2.33921,-21.07783 -1.76534,-7.15099 -4.47168,-14.31803 -7.91374,-21.66664 -3.47357,-7.40111 -7.61421,-14.70699 -12.30258,-22.17982 -7.68708,-12.25429 -16.29757,-24.02875 -25.79473,-36.60175 -2.12735,-2.81634 -4.2771,-5.64429 -6.39425,-8.43038 -11.86042,-15.58134 -22.52562,-29.41864 -32.42943,-44.76581 -4.7078,-7.29223 -8.93657,-14.53495 -12.55405,-22.00969 0,0 -1e-5,-1e-5 -1e-5,-1e-5 -3.47018,-7.14564 -6.23615,-14.34698 -8.0148,-21.74054 -1.74933,-7.21812 -2.33877,-14.43709 -1.5931,-21.39763 0.85471,-7.65497 3.42452,-14.5234 6.86993,-20.21014 4.79082,-7.82765 11.03081,-13.5538 16.46972,-17.55532 15.95114,-11.76444 27.37218,-13.10347 27.60595,-12.61857 z"
       style="fill:#00b9bd;fill-opacity:1;fill-rule:evenodd;stroke:none;stroke-width:20;stroke-linecap:butt;stroke-linejoin:miter;stroke-miterlimit:1;stroke-dasharray:none;stroke-opacity:1" /><path
       sodipodi:nodetypes="cc"
       inkscape:connector-curvature="0"
       inkscape:original-d="M 328.84741,152.84377 C 493.47688,232.21237 215.99013,456.6357 309.68296,489.99602"
       inkscape:path-effect="#path-effect6198-4"
       id="path4295"
       d="m 328.84741,152.84377 c 0.29189,-0.60544 12.14415,1.00933 28.5168,13.42077 6.12651,4.64695 12.93499,11.12929 18.60465,19.74899 4.31386,6.58678 7.90695,14.39766 10.13266,23.22703 0,0 0,1e-5 0,1e-5 1.99578,7.95473 2.88609,16.46641 2.66344,25.35931 -0.21402,8.69708 -1.4029,17.52853 -3.40067,26.50985 -2.00071,9.01689 -4.72926,17.99966 -8.04275,27.0673 -4.30272,11.77052 -9.41787,23.39269 -15.189,35.15854 -3.15409,6.43036 -6.41313,12.7188 -9.67256,18.82046 -9.1106,17.07361 -20.2367,36.18299 -28.45619,50.70304 -4.57929,8.09157 -8.68661,15.47603 -12.57608,22.92036 0,0 0,1e-5 0,1e-5 -3.81891,7.3159 -7.07655,13.97063 -9.87691,20.6219 -2.6883,6.4144 -4.72145,12.10352 -6.02262,17.75763 -1.21371,5.4166 -1.73359,10.02707 -1.23466,14.32175 0.50345,4.553 2.12582,8.3221 4.18754,11.10506 1.44966,1.98614 3.17011,3.61655 4.65869,4.86615 4.07542,3.41975 6.86697,4.63482 6.54321,5.54409 -0.18485,0.51915 -3.4644,0.78079 -8.89895,-1.80996 -2.02592,-0.96638 -4.42696,-2.43113 -6.73155,-4.60384 -3.26659,-3.12391 -6.25084,-7.74395 -7.62853,-13.69034 -1.23524,-5.38795 -1.31779,-11.22752 -0.41709,-17.46029 0.90751,-6.51335 2.64286,-13.06711 5.04588,-20.02632 2.48997,-7.24442 5.51303,-14.48867 9.05982,-22.17923 10e-6,0 10e-6,-1e-5 10e-6,-1e-5 3.60277,-7.81857 7.52268,-15.62554 11.84619,-23.91327 23.12252,-44.33549 3.16274,-4.92834 27.31413,-51.12279 3.15294,-6.03723 6.32144,-12.21673 9.38914,-18.46487 5.62179,-11.4502 10.61863,-22.5498 14.8693,-33.69523 3.26962,-8.56963 6.00217,-16.89085 8.06664,-25.15792 2.0514,-8.23459 3.41065,-16.13844 3.89802,-23.83954 0.49364,-7.85371 0.11002,-15.24698 -1.23125,-22.12952 0,0 0,-1e-5 0,-1e-5 -1.47126,-7.60779 -4.07515,-14.48478 -7.33811,-20.4165 -4.25674,-7.77926 -9.7833,-14.16743 -14.82493,-19.06455 -13.62216,-13.23437 -24.23499,-17.5438 -23.25427,-19.57806 z"
       style="fill:#00b9bd;fill-opacity:1;fill-rule:evenodd;stroke:none;stroke-width:20;stroke-linecap:butt;stroke-linejoin:miter;stroke-miterlimit:1;stroke-dasharray:none;stroke-opacity:1" /><path
       inkscape:connector-curvature="0"
       inkscape:original-d="m 136.99028,122.69436 c 0,0 85.8851,44.00724 95.82222,86.59489"
       inkscape:path-effect="#path-effect6220"
       id="path4297"
       d="m 136.99029,122.69436 c 0.0182,-0.0353 0.0418,-0.0677 0.0709,-0.0972 0.0284,-0.0289 0.0619,-0.0551 0.10054,-0.0784 0.0771,-0.0467 0.17447,-0.0823 0.29165,-0.10692 0,0 0,0 0,0 l 0,0 c 0.23401,-0.0491 0.54634,-0.0543 0.93375,-0.0166 l 0,0 c 0.77121,0.0751 1.83376,0.32018 3.16189,0.7315 l 0,0 c 2.62575,0.81319 6.24743,2.26234 10.65325,4.33448 l 0,0 c 8.44173,3.96944 19.75686,10.21146 31.83683,18.6007 3.7609,2.60726 7.61958,5.43347 11.46621,8.47882 8.35792,6.61691 15.46205,13.32355 21.43718,20.18397 0,0 0,0 0,0 5.17301,5.93463 9.00644,11.52008 11.77429,16.82377 5.43425,10.35995 5.26858,17.46721 4.09577,17.74086 -1.20561,0.28131 -3.65817,-5.86039 -9.84162,-14.15005 -3.34731,-4.46659 -7.29175,-8.98002 -12.60741,-14.26906 0,0 0,-1e-5 0,-1e-5 -6.14231,-6.10722 -12.96235,-12.07154 -21.06787,-18.48195 -3.69341,-2.921 -7.39417,-5.73023 -10.96117,-8.39022 -11.38589,-8.47641 -21.95951,-15.6891 -29.38094,-20.97234 l 0,0 c -3.88436,-2.76488 -7.02114,-5.07715 -9.08515,-6.80598 l 0,0 c -1.05182,-0.881 -1.84122,-1.62364 -2.33112,-2.21165 l 0,0 c -0.24677,-0.2962 -0.41863,-0.55472 -0.51139,-0.77324 l 0,0 c 0,0 0,0 0,0 -0.0466,-0.1097 -0.0734,-0.20955 -0.0797,-0.29921 -0.003,-0.0449 -0.001,-0.0873 0.006,-0.12717 0.007,-0.0407 0.02,-0.0787 0.0382,-0.11401 z"
       style="fill:#00b9bd;fill-opacity:1;fill-rule:evenodd;stroke:none;stroke-width:1px;stroke-linecap:butt;stroke-linejoin:miter;stroke-opacity:1" /><path
       inkscape:connector-curvature="0"
       inkscape:original-d="m 504.61951,134.20841 c 0,0 -85.8851,44.00724 -95.82222,86.59489"
       inkscape:path-effect="#path-effect6220-0"
       id="path4299"
       d="m 504.6195,134.20841 c 0.59581,1.07241 -3.96731,4.89398 -11.99312,10.34813 0,0 -10e-6,0 -10e-6,0 -7.42565,5.28623 -17.9797,12.48667 -29.35101,20.95547 -3.567,2.65999 -7.26775,5.46921 -10.96116,8.39021 -8.10552,6.41041 -14.92557,12.37473 -21.06788,18.48196 0,0 0,1e-5 0,1e-5 -5.31566,5.28904 -9.2601,9.80247 -12.60742,14.26906 -6.18344,8.28966 -8.636,14.43136 -9.84161,14.15005 -1.17281,-0.27365 -1.33848,-7.38091 4.09577,-17.74086 2.76785,-5.30369 6.60128,-10.88914 11.77429,-16.82377 0,0 0,0 0,0 5.97513,-6.86042 13.07927,-13.56707 21.43719,-20.18398 3.84663,-3.04535 7.7053,-5.87156 11.4662,-8.47881 12.09827,-8.39959 23.42549,-14.64837 31.86676,-18.61757 0,0 0,-1e-5 0,-1e-5 8.92795,-3.96466 14.58603,-5.82259 15.182,-4.74989 z"
       style="fill:#00b9bd;fill-opacity:1;fill-rule:evenodd;stroke:none;stroke-width:1px;stroke-linecap:butt;stroke-linejoin:miter;stroke-opacity:1" /><path
       inkscape:connector-curvature="0"
       inkscape:original-d="m 321.04435,129.84866 c 0,0 33.66108,-50.728675 -22.28269,-39.350281 -55.94377,11.378391 -10.43019,39.350281 -10.43019,39.350281"
       inkscape:path-effect="#path-effect6244"
       id="path4301"
       d="m 321.04436,129.84865 c -0.0266,-0.0175 -0.0507,-0.0379 -0.0729,-0.0619 -0.0213,-0.023 -0.0405,-0.0489 -0.0578,-0.0778 -0.0343,-0.0573 -0.0608,-0.12636 -0.0797,-0.20672 l 0,0 0,0 c -0.0374,-0.1581 -0.0459,-0.36114 -0.0268,-0.60668 l 0,0 c 0.0369,-0.47621 0.1762,-1.11847 0.40056,-1.91242 l 0,0 c 0.42641,-1.50931 1.12669,-3.47229 1.9941,-6.00708 l 0,0 c 0,0 0,0 0,0 1.24553,-3.68208 3.45888,-9.89208 3.75101,-15.57384 l 0,0 c 0.0875,-2.1775 0.0123,-4.42257 -0.71609,-6.150828 l 0,0 c -0.54461,-1.422562 -1.62947,-2.777341 -2.97595,-3.552586 l 0,0 c -1.85965,-1.260368 -4.58332,-1.640813 -7.81053,-1.904077 -4.11708,-0.228382 -8.42673,0.280661 -13.11332,1.116907 -0.85928,0.153326 -1.72053,0.315614 -2.57956,0.482402 -5.78804,1.181617 -10.89416,2.4343 -15.5401,4.410583 -3.12063,1.403359 -5.67118,2.684069 -7.30266,4.523109 -1.07396,1.1724 -1.82879,2.51569 -1.91645,3.7397 -0.23152,1.35689 0.24779,3.04793 0.86896,4.64541 1.68494,4.21664 5.47542,8.30396 7.64858,10.73624 3.46592,3.38842 5.27749,5.69163 4.81845,6.39552 0,0 0,0 0,0 -0.003,0.004 -0.003,0.004 -0.003,0.004 0,0 0,0 -0.003,0.004 0,0 0,0 0,0 -0.47725,0.69245 -3.17996,-0.30057 -7.67534,-2.71698 -3.0411,-1.85238 -7.92423,-5.33604 -11.39345,-10.98349 -1.33495,-2.15844 -2.41331,-4.9735 -2.50412,-8.33335 0.0506,-3.35956 1.22927,-6.63317 3.39761,-9.260281 2.83419,-3.394026 6.41506,-5.77068 10.13998,-7.454583 5.50848,-2.602809 11.34774,-4.259957 17.47251,-5.501296 0.91716,-0.194474 1.84946,-0.379724 2.795,-0.551477 5.14871,-0.935248 10.32037,-1.400471 15.54372,-1.001726 4.14321,0.231763 8.46661,1.379028 12.31602,3.939692 l 0,0 c 3.11555,2.211073 5.18291,5.319336 6.13225,8.645061 l 0,0 c 0.94369,3.58947 0.80136,6.95305 0.26041,9.75825 l 0,0 c -1.36711,7.369 -4.78909,13.30773 -7.14437,16.80903 l 0,0 0,0 0,0 c -1.55033,2.32862 -2.98463,4.07005 -4.10443,5.18187 l 0,0 c -0.60561,0.60135 -1.12664,1.02711 -1.5485,1.27538 l 0,0 c -0.21712,0.12776 -0.40691,0.20836 -0.56844,0.24103 l 0,0 0,0 c -0.0817,0.0164 -0.15587,0.0206 -0.22255,0.0125 -0.0335,-0.004 -0.0651,-0.0113 -0.0948,-0.0216 -0.0309,-0.0108 -0.0593,-0.0247 -0.0859,-0.0421 z"
       style="fill:#00b9bd;fill-opacity:1;fill-rule:evenodd;stroke:none;stroke-width:1px;stroke-linecap:butt;stroke-linejoin:miter;stroke-opacity:1" /></g></svg>